<?xml version="1.0" encoding="UTF-8"?> <svg xmlns="http://www.w3.org/2000/svg" width="40" height="40" viewBox="0 0 40 40" fill="none"> <circle cx="20" cy="20" r="20" fill="#6BEAC7"></circle> <path d="M9.50024 29C13.5002 29 13.2534 29 18.5001 29C23.7468 29 28.0001 24.7467 28.0001 19.5C28.0001 14.2533 23.7468 10 18.5001 10" stroke="white" stroke-width="2" stroke-linecap="round"></path> <path d="M17.3271 9.06482C17.1223 9.32126 16.9999 9.64634 16.9999 10C16.9999 10.4165 17.1696 10.7933 17.4436 11.065C13.2478 11.5853 10.0002 14.6635 10.0002 19.0001C10.0002 22.6839 12.3437 26.3203 15.6211 27.5H11.6992C9.43592 25.5741 8.00024 22.2048 8.00024 19.0001C8.00024 13.5977 12.0803 9.64814 17.3271 9.06482Z" fill="white"></path> <path d="M25.4825 28C24.4039 28.8872 23.1534 29.573 21.7885 30H29.0001C29.5524 30 30.0001 29.5523 30.0001 29C30.0001 28.4477 29.5524 28 29.0001 28H25.4825Z" fill="white"></path> <path d="M18.5 10L21.1235 12.8988" stroke="white" stroke-width="2" stroke-linecap="round"></path> <path d="M31.3706 28.959L28.3784 26.4426" stroke="white" stroke-width="2" stroke-linecap="round"></path> <path d="M18.5 10L21.9183 8" stroke="white" stroke-width="2" stroke-linecap="round"></path> <path d="M31.3706 28.959L28.255 31.4039" stroke="white" stroke-width="2" stroke-linecap="round"></path> </svg> 