<?xml version="1.0" encoding="UTF-8"?> <svg xmlns="http://www.w3.org/2000/svg" width="124" height="42" viewBox="0 0 124 42" fill="none"> <rect width="124" height="42" rx="8" fill="#353747"></rect> <path fill-rule="evenodd" clip-rule="evenodd" d="M38.1173 11.1907H35.5786V11.9386H37.3792C37.2902 12.9874 36.4113 13.4347 35.5817 13.4347C34.5203 13.4347 33.5941 12.6056 33.5941 11.4435C33.5941 10.3115 34.477 9.43977 35.5839 9.43977C36.4382 9.43977 36.9414 9.98022 36.9414 9.98022L37.4689 9.43794C37.4689 9.43794 36.7918 8.6897 35.557 8.6897C33.9847 8.6897 32.7684 10.0072 32.7684 11.4301C32.7684 12.8246 33.9126 14.1842 35.5971 14.1842C37.0788 14.1842 38.1634 13.1767 38.1634 11.6867C38.1634 11.3723 38.1173 11.1906 38.1173 11.1906V11.1907ZM38.5956 23.2445H44.1741C44.178 23.2603 44.2749 23.6573 44.2749 24.3341C44.2749 27.6082 41.8918 29.8225 38.6361 29.8225C34.9344 29.8225 32.4202 26.8347 32.4202 23.7707C32.4202 20.6437 35.0931 17.7487 38.5481 17.7488C41.2614 17.7488 42.7491 19.393 42.7491 19.393L41.59 20.5846C41.59 20.5846 40.4841 19.3967 38.6073 19.3967C36.1749 19.3967 34.2347 21.3125 34.2347 23.8C34.2347 26.3533 36.2699 28.1753 38.6022 28.1753C40.4252 28.1753 42.3564 27.1924 42.552 24.8879H38.5956V23.2445ZM44.9866 25.9031C44.9866 23.8309 46.627 22.0544 48.9162 22.0544C50.7977 22.0544 52.8382 23.378 52.8382 25.9482C52.8382 28.1906 51.084 29.8154 48.9429 29.8154C46.5776 29.8154 44.9866 28.0058 44.9866 25.9031ZM57.555 22.0544C55.2659 22.0544 53.6254 23.8309 53.6254 25.9031C53.6254 28.0058 55.2166 29.8154 57.5819 29.8154C59.723 29.8154 61.4771 28.1906 61.4771 25.9482C61.4771 23.378 59.4368 22.0544 57.555 22.0544ZM51.1312 25.938C51.1312 24.4821 50.0645 23.5785 48.9388 23.5785V23.5786C47.674 23.5786 46.7019 24.5825 46.7019 25.9266C46.7019 27.3003 47.6862 28.2922 48.9336 28.2922C50.069 28.2922 51.1312 27.3629 51.1312 25.938ZM57.5777 23.5785C58.7033 23.5785 59.7701 24.4821 59.7701 25.938C59.7701 27.3629 58.7079 28.2922 57.5724 28.2922C56.3251 28.2922 55.341 27.3003 55.341 25.9266C55.341 24.5825 56.3128 23.5786 57.5777 23.5786V23.5785ZM62.2641 25.9358C62.2641 23.8853 63.9158 22.0585 66.0167 22.0585V22.0586C66.9314 22.0586 67.6205 22.4099 68.1243 22.9491V22.2918H69.7631V29.2647C69.7631 32.0044 68.171 33.3104 66.0819 33.3104C64.1721 33.3104 63.0993 32.1446 62.5662 31.0253L64.0686 30.4018C64.2767 30.9019 64.8756 31.7837 66.0695 31.7837C67.3054 31.7837 68.1242 30.9815 68.1242 29.6427V28.8775C67.6869 29.3814 67.0946 29.8205 65.9804 29.8205C64.1788 29.8205 62.2641 28.2716 62.2641 25.9358ZM66.1688 23.5796C67.1989 23.5796 68.2567 24.4528 68.2567 25.9441C68.2567 27.4598 67.2011 28.2951 66.146 28.2951C65.0261 28.2951 63.9837 27.3923 63.9837 25.9585C63.9837 24.4687 65.0662 23.5796 66.1688 23.5796ZM73.7485 25.9246C73.7485 23.6146 75.4125 22.0491 77.3944 22.0491L77.3945 22.0494C78.9576 22.0494 80.1386 23.0842 80.645 24.3232L80.9171 24.956L75.6758 27.115C75.9889 27.6936 76.4943 28.291 77.593 28.2911C78.5712 28.2911 79.1575 27.7631 79.5082 27.2228L80.8593 28.1154C80.2535 28.9202 79.2385 29.8183 77.5848 29.8183C75.6032 29.8183 73.7485 28.3688 73.7485 25.9246ZM77.4628 23.5417C78.1769 23.5417 78.6908 23.9185 78.9091 24.3705L75.4089 25.8229C75.2581 24.6984 76.3311 23.5417 77.4627 23.5417H77.4628ZM72.799 29.588H71.0774V18.1501H72.799V29.588ZM94.1595 29.588H95.8811V18.1501H94.1595V29.588ZM86.7516 29.588H85.03V25.4374V18.1501V18.15H89.1945C91.2132 18.15 92.8648 19.7896 92.8648 21.7938C92.8648 23.7978 91.2132 25.4374 89.1945 25.4374H86.7516V29.588ZM86.7516 23.7283V19.8591H89.1945C90.263 19.8591 91.1433 20.733 91.1433 21.7938C91.1433 22.8544 90.263 23.7283 89.1945 23.7283H86.7516ZM108.592 33.3104L113.577 22.0494H111.696L109.441 27.1452L107.185 22.0494H105.305L108.5 29.2693L106.712 33.3104H108.592ZM102.927 29.588H104.649V25.4742C104.918 21.2315 99.4998 20.2336 97.4497 23.2922L98.8351 24.2151C99.8375 22.4752 102.698 22.8755 102.886 24.7401C102.026 24.5141 101.098 24.3502 100.249 24.4354C98.9246 24.5684 97.7906 25.4035 97.6104 26.7712C97.513 27.5103 97.6792 28.4213 98.1989 28.9765C99.0089 29.8416 100.339 29.9582 101.431 29.6626C102.046 29.4961 102.53 29.1334 102.927 28.6647V29.588ZM101.022 28.1717C101.964 27.917 102.707 27.2328 102.927 26.2816C102.445 26.1267 102.002 26.0018 101.494 25.9409C98.5359 25.4994 99.0311 28.7105 101.022 28.1717ZM49.2771 14.0776H48.4937V8.87237H49.2771V14.0776ZM44.106 14.0776H44.8896V9.65012H46.1756V8.87237H42.82V9.65012H44.106V14.0776ZM41.994 14.0776H38.9893V8.87237H41.994V9.65012H39.7728V11.0861H41.7266V11.8639H39.7728V13.2997H41.994V14.0776ZM51.9844 14.0776V9.65012H53.2704V8.87237H49.9149V9.65012H51.201V14.0776H51.9844ZM55.2863 11.4301C55.2863 10.007 56.5027 8.6897 58.0751 8.6897C59.6474 8.6897 60.8638 10.007 60.8638 11.4301C60.8638 12.8134 59.7377 14.1624 58.0751 14.1837C56.4124 14.1624 55.2863 12.8134 55.2863 11.4301ZM58.0751 13.4344C57.024 13.4216 56.1121 12.5966 56.1121 11.4435C56.1121 10.3208 56.9808 9.45403 58.0751 9.44001C59.1695 9.45403 60.038 10.3208 60.038 11.4435C60.038 12.5966 59.1261 13.4216 58.0751 13.4344ZM62.4299 14.0776H61.6464V8.87237H62.4299L64.9449 12.662V8.87237H65.7284V14.0776H64.9462L62.4299 10.286V14.0776Z" fill="white"></path> <path fill-rule="evenodd" clip-rule="evenodd" d="M23.147 21.024L12.3827 15.1938C12.2677 15.1315 12.1372 15.0936 12.0071 15.0767L20.594 23.589L23.147 21.024Z" fill="#00EF76"></path> <path fill-rule="evenodd" clip-rule="evenodd" d="M23.6257 26.594L20.9629 23.9544L23.623 21.2817L27.2863 23.2656C28.1888 23.7541 27.7272 24.3653 27.2863 24.6048L23.6257 26.594Z" fill="#FFCE00"></path> <path fill-rule="evenodd" clip-rule="evenodd" d="M12.1479 32.8112C12.223 32.7831 12.3014 32.7478 12.3827 32.7026L23.1492 26.8526L20.5966 24.3223L12.1479 32.8112Z" fill="#FC3745"></path> <path fill-rule="evenodd" clip-rule="evenodd" d="M11.3758 15.1821L20.2279 23.9571L11.4183 32.809C11.1612 32.6469 11.0234 32.2957 11.021 31.842C11.0166 30.972 10.9465 17.1671 10.9412 16.1312C10.9387 15.6344 11.1208 15.3314 11.3758 15.1821Z" fill="#00D3FF"></path> </svg> 