<?xml version="1.0" encoding="UTF-8"?> <svg xmlns="http://www.w3.org/2000/svg" width="143" height="31" viewBox="0 0 143 31" fill="none"> <path d="M1 2.97363V28.5611H9.92977C18.678 28.5611 24.486 24.3574 24.486 15.2556C24.486 7.39661 19.9122 2.97363 9.60307 2.97363H1ZM6.80798 23.0781V8.45666H10.0387C16.1734 8.45666 18.4239 10.9423 18.4239 15.6943C18.4239 20.1538 15.883 23.0781 10.1113 23.0781H6.80798Z" fill="#515DAD"></path> <path d="M36.7804 9.84595C30.573 9.8825 26.798 13.0992 26.798 19.3864C26.798 25.7833 30.8634 29 36.4536 29C42.6247 28.9634 46.4361 25.7833 46.4361 19.4595C46.4361 13.0627 42.3706 9.84595 36.7804 9.84595ZM32.4243 19.3499C32.4243 16.06 33.9489 14.671 36.5989 14.671C39.0672 14.7076 40.8097 16.0966 40.8097 19.3864V19.4961C40.8097 22.7859 39.2851 24.1749 36.6352 24.1749C34.1305 24.1749 32.4243 22.7859 32.4243 19.4595V19.3499Z" fill="#515DAD"></path> <path d="M60.9386 28.5615H66.4199V18.0706C66.3836 15.7678 67.5815 14.7443 69.6143 14.7443H69.6869C71.3566 14.7808 72.0826 15.7312 72.0826 17.7416V28.5615H77.5639V16.1698C77.5639 12.0758 75.3496 9.95576 71.6833 9.91919H71.647C68.7068 9.91919 66.7466 11.7103 66.1295 13.9035C65.4035 11.3082 63.407 9.95576 60.5756 9.91919H60.503C57.599 9.91919 55.6025 11.82 54.9854 13.8304V10.2847H49.8671V28.5615H55.3121V18.0706C55.2032 15.6215 56.3648 14.7808 58.4339 14.7443C60.2489 14.7443 60.9386 15.6946 60.9386 17.7416V28.5615Z" fill="#515DAD"></path> <path d="M82.4579 17.8513C83.6921 16.0236 85.3982 14.7077 89.2459 14.7077C91.4965 14.7077 92.1862 15.4753 92.1862 17.5223V17.6685H88.2658C84.164 17.6685 80.9696 18.8383 80.9696 23.1881C80.9696 26.5876 82.9298 28.8539 86.705 28.8539C89.5363 28.8539 91.6054 27.3918 92.4766 25.2717V28.5615H97.6312V16.4988C97.6312 11.9662 95.2354 9.91919 89.2459 9.91919C85.8338 9.91919 83.6558 10.5772 82.4579 11.491V17.8513ZM88.5925 24.0289C87.2131 24.0289 86.4509 23.444 86.4509 22.4571C86.4509 21.2873 87.4309 20.8487 89.1733 20.8487H92.1862V21.9087C92.0047 23.1516 90.6616 24.0289 88.5925 24.0289Z" fill="#515DAD"></path> <path d="M102.958 25.6738C102.958 27.4649 103.72 28.927 106.225 28.927C108.838 28.927 109.6 27.4649 109.6 25.6738C109.6 23.8461 108.838 22.3474 106.225 22.3474C103.72 22.3474 102.958 23.8461 102.958 25.6738Z" fill="#515DAD"></path> <path d="M115.709 17.8513C116.943 16.0236 118.649 14.7077 122.497 14.7077C124.748 14.7077 125.437 15.4753 125.437 17.5223V17.6685H121.517C117.415 17.6685 114.221 18.8383 114.221 23.1881C114.221 26.5876 116.181 28.8539 119.956 28.8539C122.787 28.8539 124.856 27.3918 125.728 25.2717V28.5615H130.882V16.4988C130.882 11.9662 128.486 9.91919 122.497 9.91919C119.085 9.91919 116.907 10.5772 115.709 11.491V17.8513ZM121.844 24.0289C120.464 24.0289 119.702 23.444 119.702 22.4571C119.702 21.2873 120.682 20.8487 122.424 20.8487H125.437V21.9087C125.256 23.1516 123.913 24.0289 121.844 24.0289Z" fill="#515DAD"></path> <path d="M134.974 3.81462C134.974 5.56919 136.172 6.70234 138.023 6.70234C139.802 6.70234 141 5.56919 141 3.81462C141 2.0966 139.802 1 138.023 1C136.172 1 134.974 2.0966 134.974 3.81462ZM135.265 28.5614H140.746V10.2846H135.265V28.5614Z" fill="#515DAD"></path> </svg> 