<?xml version="1.0" encoding="UTF-8"?> <svg xmlns="http://www.w3.org/2000/svg" width="312" height="260" viewBox="0 0 312 260" fill="none"> <path d="M49.3049 217.457C-2.20904 188.971 -2.20904 142.777 49.3049 114.291C100.819 85.8052 184.343 85.8052 235.857 114.291C287.371 142.777 287.371 188.971 235.857 217.457C184.343 245.943 100.819 245.943 49.3049 217.457Z" fill="#E7E9F8"></path> <path d="M55.8478 228.146C56.0282 228.146 56.2086 228.088 56.4062 227.981L203.536 146.53C204.67 145.905 205.624 144.325 205.624 143.074V36.5793C205.624 35.8304 205.297 35.386 204.748 35.386C204.498 35.386 204.215 35.4683 203.923 35.6329L56.7842 117.051C55.6589 117.676 54.6968 119.256 54.6968 120.507V226.483C54.6968 226.944 54.8256 227.389 55.0576 227.701C55.2122 227.899 55.4699 228.146 55.8478 228.146Z" fill="white"></path> <path d="M52.3687 226.796C52.6178 226.919 54.3873 227.891 55.1604 228.31C54.6364 227.956 54.3616 227.339 54.3272 226.483V127.643L51.4152 126.013V224.911C51.4066 225.743 51.7846 226.5 52.3687 226.796Z" fill="#DADDEF"></path> <path d="M204.739 35.7564C205.168 35.7564 205.228 36.2666 205.228 36.5794V143.082C205.228 144.218 204.361 145.65 203.338 146.218L56.2082 227.668C56.0707 227.742 55.9505 227.784 55.8388 227.784C55.4351 227.784 55.0829 227.175 55.0829 226.483V120.507C55.0829 119.372 55.9505 117.94 56.9727 117.372L204.103 35.9621C204.404 35.7893 204.618 35.7564 204.739 35.7564ZM204.739 35.0239C204.429 35.0239 204.086 35.1227 203.725 35.3202L56.5947 116.73C55.3406 117.421 54.3184 119.117 54.3184 120.507V226.483C54.3184 227.586 54.954 228.516 55.8474 228.516C56.0793 228.516 56.337 228.45 56.6033 228.302L203.734 146.851C204.988 146.16 206.01 144.473 206.01 143.082V36.5794C206.001 35.5918 205.486 35.0239 204.739 35.0239Z" fill="white"></path> <path d="M206.002 36.5302V43.7972L54.3188 127.717L51.4067 126.096V118.919C51.4067 118.22 51.673 117.438 52.1025 116.738C52.5149 116.064 53.0818 115.487 53.6831 115.15L200.813 33.7403C201.466 33.3864 202.042 33.3782 202.471 33.6169C202.883 33.8638 204.876 34.9501 205.289 35.1476C205.349 35.1805 205.418 35.2134 205.46 35.2628C205.521 35.3122 205.589 35.3698 205.641 35.4357C205.692 35.5015 205.744 35.5756 205.787 35.6579C205.838 35.7402 205.873 35.8225 205.899 35.9212C205.933 36.0117 205.95 36.1105 205.967 36.2175C205.967 36.2175 205.967 36.2257 205.967 36.234C205.984 36.3245 206.002 36.4232 206.002 36.5302Z" fill="#6BEAC7"></path> <path opacity="0.15" d="M206.002 36.5302V43.7972L54.3188 127.717L51.4067 126.096V118.919C51.4067 118.22 51.673 117.438 52.1025 116.738C52.5149 116.064 53.0818 115.487 53.6831 115.15L200.813 33.7403C201.466 33.3864 202.042 33.3782 202.471 33.6169C202.883 33.8638 204.876 34.9501 205.289 35.1476C205.349 35.1805 205.418 35.2134 205.46 35.2628C205.521 35.3122 205.589 35.3698 205.641 35.4357C205.692 35.5015 205.744 35.5756 205.787 35.6579C205.838 35.7402 205.873 35.8225 205.899 35.9212C205.933 36.0117 205.95 36.1105 205.967 36.2175C205.967 36.2175 205.967 36.2257 205.967 36.234C205.984 36.3245 206.002 36.4232 206.002 36.5302Z" fill="black"></path> <path d="M206.001 36.5301V43.7971L54.3184 127.717V120.499C54.3184 120.063 54.4128 119.602 54.5932 119.15C54.619 119.076 54.6448 118.993 54.6791 118.927C54.765 118.73 54.8767 118.532 54.9884 118.335C55.4007 117.652 55.9676 117.059 56.5861 116.722L203.716 35.3121C204.412 34.9171 205.039 34.9253 205.46 35.2463C205.52 35.2956 205.589 35.3533 205.64 35.4191C205.692 35.4849 205.744 35.559 205.786 35.6413C205.838 35.7236 205.872 35.8059 205.898 35.9047C205.933 35.9952 205.95 36.0939 205.967 36.2009C205.967 36.2009 205.967 36.2092 205.967 36.2174C205.984 36.3244 206.001 36.4231 206.001 36.5301Z" fill="#6BEAC7"></path> <path d="M190.72 45.2781C189.939 45.7142 189.303 46.9981 189.303 48.1585C189.303 49.3189 189.939 49.9032 190.72 49.4671C191.502 49.0309 192.138 47.747 192.138 46.5866C192.146 45.4344 191.511 44.8419 190.72 45.2781Z" fill="#FAFAFA"></path> <path d="M195.84 42.447C195.058 42.8832 194.423 44.167 194.423 45.3274C194.423 46.4878 195.058 47.0722 195.84 46.636C196.622 46.1998 197.257 44.9159 197.257 43.7555C197.257 42.5951 196.622 42.0108 195.84 42.447Z" fill="#FAFAFA"></path> <path d="M200.951 39.6077C200.17 40.0439 199.534 41.3278 199.534 42.4882C199.534 43.6486 200.17 44.2329 200.951 43.7967C201.733 43.3605 202.369 42.0767 202.369 40.9163C202.369 39.7559 201.733 39.1798 200.951 39.6077Z" fill="#FAFAFA"></path> <path d="M203.725 35.3205L56.5952 116.73C55.9767 117.076 55.4012 117.668 54.9888 118.351L52.094 116.747C52.5063 116.072 53.0561 115.496 53.6746 115.158L200.813 33.7486C201.466 33.3864 202.042 33.3782 202.463 33.6169C202.875 33.8555 204.756 34.8843 205.237 35.1312C204.851 34.9419 204.309 34.9995 203.725 35.3205Z" fill="#6BEAC7"></path> <g opacity="0.5"> <path opacity="0.5" d="M203.725 35.3205L56.5952 116.73C55.9767 117.076 55.4012 117.668 54.9888 118.351L52.094 116.747C52.5063 116.072 53.0561 115.496 53.6746 115.158L200.813 33.7486C201.466 33.3864 202.042 33.3782 202.463 33.6169C202.875 33.8555 204.756 34.8843 205.237 35.1312C204.851 34.9419 204.309 34.9995 203.725 35.3205Z" fill="white"></path> </g> <path d="M91.0846 131.265C90.9729 131.265 90.8784 131.174 90.8784 131.067V122.763C90.8784 122.656 90.9729 122.566 91.0846 122.566C91.1962 122.566 91.2907 122.656 91.2907 122.763V131.067C91.2907 131.174 91.1962 131.265 91.0846 131.265Z" fill="#353747"></path> <path d="M90.3884 130.285L91.0842 130.952L91.7714 130.285V130.853L91.0842 131.511L90.3884 130.853V130.285Z" fill="#353747"></path> <path d="M98.4453 132.17C98.3766 132.17 98.3079 132.137 98.2649 132.071C98.2048 131.98 98.2392 131.857 98.3423 131.808L104.046 128.647C104.141 128.598 104.269 128.623 104.321 128.721C104.381 128.812 104.347 128.935 104.244 128.985L98.5398 132.145C98.514 132.161 98.4797 132.17 98.4453 132.17Z" fill="#353747"></path> <path d="M103.796 129.774L104.045 128.877L103.101 128.63L103.607 128.351L104.552 128.589L104.303 129.495L103.796 129.774Z" fill="#353747"></path> <path d="M97.3892 175.796C97.3205 175.796 97.2517 175.763 97.2088 175.697C97.1487 175.607 97.183 175.483 97.2861 175.434L102.99 172.273C103.084 172.216 103.213 172.249 103.265 172.348C103.325 172.438 103.291 172.562 103.187 172.611L97.4837 175.771C97.4579 175.788 97.4235 175.796 97.3892 175.796Z" fill="#353747"></path> <path d="M102.74 173.409L102.989 172.504L102.044 172.265L102.551 171.977L103.496 172.224L103.247 173.129L102.74 173.409Z" fill="#353747"></path> <path d="M118.109 164.341C118.04 164.341 117.971 164.308 117.929 164.242C117.868 164.151 117.903 164.028 118.006 163.978L123.71 160.818C123.804 160.761 123.933 160.793 123.985 160.892C124.045 160.983 124.01 161.106 123.907 161.156L118.203 164.316C118.178 164.332 118.143 164.341 118.109 164.341Z" fill="#353747"></path> <path d="M123.46 161.946L123.709 161.049L122.764 160.802L123.271 160.522L124.216 160.761L123.967 161.666L123.46 161.946Z" fill="#353747"></path> <path d="M119.439 120.557C119.371 120.557 119.302 120.524 119.259 120.459C119.199 120.368 119.233 120.245 119.336 120.195L125.04 117.035C125.134 116.986 125.263 117.01 125.315 117.109C125.375 117.2 125.341 117.323 125.237 117.372L119.534 120.533C119.508 120.549 119.474 120.557 119.439 120.557Z" fill="#353747"></path> <path d="M124.781 118.17L125.039 117.265L124.094 117.018L124.601 116.738L125.546 116.985L125.297 117.882L124.781 118.17Z" fill="#353747"></path> <path d="M119.062 142.498C118.993 142.498 118.925 142.465 118.882 142.399C118.822 142.308 118.856 142.185 118.959 142.136L124.663 138.975C124.757 138.918 124.886 138.951 124.938 139.049C124.998 139.14 124.963 139.263 124.86 139.313L119.157 142.473C119.131 142.49 119.096 142.498 119.062 142.498Z" fill="#353747"></path> <path d="M119.422 141.346L119.165 142.251L120.109 142.49L119.603 142.769L118.658 142.531L118.907 141.626L119.422 141.346Z" fill="#353747"></path> <path d="M118.7 183.302C118.631 183.302 118.563 183.269 118.52 183.203C118.459 183.113 118.494 182.989 118.597 182.94L123.931 179.994C124.026 179.936 124.155 179.969 124.206 180.068C124.266 180.158 124.232 180.282 124.129 180.331L118.794 183.277C118.769 183.294 118.734 183.302 118.7 183.302Z" fill="#353747"></path> <path d="M119.053 182.142L118.803 183.047L119.748 183.294L119.242 183.574L118.297 183.327L118.546 182.421L119.053 182.142Z" fill="#353747"></path> <path d="M98.5398 153.847C98.4711 153.847 98.4024 153.814 98.3594 153.748C98.2993 153.657 98.3337 153.534 98.4367 153.485L104.141 150.324C104.235 150.267 104.364 150.3 104.415 150.398C104.476 150.489 104.441 150.612 104.338 150.662L98.6343 153.822C98.6171 153.838 98.5742 153.847 98.5398 153.847Z" fill="#353747"></path> <path d="M98.9 152.695L98.6509 153.6L99.5958 153.839L99.0804 154.118L98.1355 153.88L98.3932 152.974L98.9 152.695Z" fill="#353747"></path> <path d="M131.01 127.972C130.898 127.972 130.804 127.882 130.804 127.775V121.446C130.804 121.339 130.898 121.249 131.01 121.249C131.122 121.249 131.216 121.339 131.216 121.446V127.775C131.216 127.882 131.122 127.972 131.01 127.972Z" fill="#353747"></path> <path d="M130.323 127.001L131.011 127.66L131.706 127.001V127.561L131.011 128.219L130.323 127.561V127.001Z" fill="#353747"></path> <path d="M91.0846 168.414C91.0502 168.414 91.0159 168.406 90.9815 168.389C90.9214 168.357 90.8784 168.291 90.8784 168.217V163.559C90.8784 163.452 90.9729 163.361 91.0846 163.361C91.1962 163.361 91.2907 163.452 91.2907 163.559V167.879L130.814 146.021V143.124C130.814 143.017 130.908 142.926 131.02 142.926C131.131 142.926 131.226 143.017 131.226 143.124V146.128C131.226 146.194 131.191 146.259 131.123 146.301L91.1963 168.389C91.1533 168.406 91.1189 168.414 91.0846 168.414Z" fill="#353747"></path> <path d="M91.7714 164.34L91.0842 163.681L90.3884 164.34V163.78L91.0842 163.114L91.7714 163.78V164.34Z" fill="#353747"></path> <path d="M91.0841 190.017C91.0497 190.017 91.0154 190.009 90.981 189.993C90.9209 189.96 90.8779 189.894 90.8779 189.82V186.816C90.8779 186.709 90.9724 186.618 91.0841 186.618C91.1958 186.618 91.2903 186.709 91.2903 186.816V189.482L130.813 167.624V163.081C130.813 162.974 130.908 162.884 131.019 162.884C131.131 162.884 131.225 162.974 131.225 163.081V167.739C131.225 167.805 131.191 167.871 131.122 167.912L91.1872 189.993C91.1528 190.009 91.1184 190.017 91.0841 190.017Z" fill="#353747"></path> <path d="M131.706 163.855L131.01 163.197L130.323 163.855V163.295L131.01 162.637L131.706 163.295V163.855Z" fill="#353747"></path> <path d="M81.943 184.339C81.9086 184.339 81.8743 184.33 81.8399 184.314C81.7798 184.281 81.7368 184.215 81.7368 184.141V162.834C81.7368 162.768 81.7712 162.702 81.8399 162.661L83.996 161.468C84.0905 161.41 84.2193 161.443 84.2709 161.542C84.331 161.632 84.2967 161.756 84.1936 161.805L82.132 162.941V183.804L84.3997 182.553C84.4942 182.495 84.6231 182.528 84.6746 182.627C84.7347 182.717 84.7004 182.841 84.5973 182.89L82.0289 184.314C82.0203 184.33 81.9859 184.339 81.943 184.339Z" fill="#353747"></path> <path d="M84.1594 183.688L84.4171 182.783L83.4722 182.536L83.979 182.256L84.9239 182.495L84.6662 183.4L84.1594 183.688Z" fill="#353747"></path> <path d="M138.759 172.207C138.69 172.207 138.621 172.174 138.578 172.109C138.518 172.018 138.553 171.895 138.656 171.845L140.803 170.652V151.814L138.948 152.843C138.853 152.9 138.724 152.867 138.673 152.768C138.613 152.678 138.647 152.555 138.75 152.505L140.906 151.312C140.966 151.279 141.044 151.279 141.112 151.312C141.173 151.345 141.216 151.411 141.216 151.485V170.775C141.216 170.849 141.181 170.907 141.112 170.948L138.862 172.191C138.828 172.199 138.793 172.207 138.759 172.207Z" fill="#353747"></path> <path d="M139.111 171.047L138.862 171.952L139.807 172.191L139.3 172.479L138.355 172.232L138.605 171.327L139.111 171.047Z" fill="#353747"></path> <path d="M93.2852 120.124C96.461 117.577 98.0505 114.385 96.8355 112.994C95.6204 111.604 92.0609 112.541 88.8851 115.088C85.7093 117.635 84.1198 120.828 85.3348 122.218C86.5499 123.609 90.1094 122.671 93.2852 120.124Z" fill="#6BEAC7"></path> <path d="M117.472 183.787C117.472 186.001 114.715 189.317 111.313 191.202C107.912 193.087 105.154 192.815 105.154 190.609C105.154 188.396 107.912 185.079 111.313 183.194C114.715 181.301 117.472 181.573 117.472 183.787Z" fill="#6BEAC7"></path> <path d="M96.6932 136.49L85.4746 142.695C85.1396 142.885 84.8647 142.687 84.8647 142.259V136.721C84.8647 136.293 85.1396 135.791 85.4746 135.61L96.6932 129.404C97.0282 129.215 97.3031 129.412 97.3031 129.84V135.379C97.3031 135.807 97.0282 136.301 96.6932 136.49Z" fill="#6BEAC7"></path> <path opacity="0.6" d="M96.6932 136.49L85.4746 142.695C85.1396 142.885 84.8647 142.687 84.8647 142.259V136.721C84.8647 136.293 85.1396 135.791 85.4746 135.61L96.6932 129.404C97.0282 129.215 97.3031 129.412 97.3031 129.84V135.379C97.3031 135.807 97.0282 136.301 96.6932 136.49Z" fill="white"></path> <path d="M116.923 125.297L105.704 131.503C105.369 131.692 105.094 131.494 105.094 131.066V125.528C105.094 125.1 105.369 124.598 105.704 124.417L116.923 118.211C117.258 118.022 117.533 118.22 117.533 118.648V124.186C117.524 124.614 117.258 125.116 116.923 125.297Z" fill="#6BEAC7"></path> <path opacity="0.6" d="M116.923 125.297L105.704 131.503C105.369 131.692 105.094 131.494 105.094 131.066V125.528C105.094 125.1 105.369 124.598 105.704 124.417L116.923 118.211C117.258 118.022 117.533 118.22 117.533 118.648V124.186C117.524 124.614 117.258 125.116 116.923 125.297Z" fill="white"></path> <path d="M116.923 147.032L105.704 153.238C105.369 153.427 105.094 153.229 105.094 152.801V147.263C105.094 146.835 105.369 146.333 105.704 146.152L116.923 139.946C117.258 139.757 117.533 139.955 117.533 140.383V145.921C117.524 146.349 117.258 146.851 116.923 147.032Z" fill="#6BEAC7"></path> <path opacity="0.6" d="M116.923 147.032L105.704 153.238C105.369 153.427 105.094 153.229 105.094 152.801V147.263C105.094 146.835 105.369 146.333 105.704 146.152L116.923 139.946C117.258 139.757 117.533 139.955 117.533 140.383V145.921C117.524 146.349 117.258 146.851 116.923 147.032Z" fill="white"></path> <path d="M116.923 168.348L105.704 174.553C105.369 174.742 105.094 174.545 105.094 174.117V168.578C105.094 168.15 105.369 167.648 105.704 167.467L116.923 161.262C117.258 161.073 117.533 161.27 117.533 161.698V167.237C117.524 167.665 117.258 168.159 116.923 168.348Z" fill="#6BEAC7"></path> <path opacity="0.6" d="M116.923 168.348L105.704 174.553C105.369 174.742 105.094 174.545 105.094 174.117V168.578C105.094 168.15 105.369 167.648 105.704 167.467L116.923 161.262C117.258 161.073 117.533 161.27 117.533 161.698V167.237C117.524 167.665 117.258 168.159 116.923 168.348Z" fill="white"></path> <path d="M136.62 157.443L125.401 163.648C125.066 163.838 124.791 163.64 124.791 163.212V157.673C124.791 157.245 125.066 156.743 125.401 156.562L136.62 150.357C136.955 150.168 137.229 150.365 137.229 150.793V156.332C137.229 156.76 136.963 157.262 136.62 157.443Z" fill="#6BEAC7"></path> <path opacity="0.6" d="M136.62 157.443L125.401 163.648C125.066 163.838 124.791 163.64 124.791 163.212V157.673C124.791 157.245 125.066 156.743 125.401 156.562L136.62 150.357C136.955 150.168 137.229 150.365 137.229 150.793V156.332C137.229 156.76 136.963 157.262 136.62 157.443Z" fill="white"></path> <path d="M136.62 176.734L125.401 182.939C125.066 183.129 124.791 182.931 124.791 182.503V176.964C124.791 176.536 125.066 176.034 125.401 175.853L136.62 169.648C136.955 169.459 137.229 169.656 137.229 170.084V175.623C137.229 176.051 136.963 176.545 136.62 176.734Z" fill="#6BEAC7"></path> <path opacity="0.6" d="M136.62 176.734L125.401 182.939C125.066 183.129 124.791 182.931 124.791 182.503V176.964C124.791 176.536 125.066 176.034 125.401 175.853L136.62 169.648C136.955 169.459 137.229 169.656 137.229 170.084V175.623C137.229 176.051 136.963 176.545 136.62 176.734Z" fill="white"></path> <path d="M96.6932 158.225L85.4746 164.431C85.1396 164.62 84.8647 164.422 84.8647 163.994V158.456C84.8647 158.028 85.1396 157.526 85.4746 157.345L96.6932 151.139C97.0282 150.95 97.3031 151.148 97.3031 151.576V157.114C97.3031 157.542 97.0282 158.036 96.6932 158.225Z" fill="#6BEAC7"></path> <path opacity="0.6" d="M96.6932 158.225L85.4746 164.431C85.1396 164.62 84.8647 164.422 84.8647 163.994V158.456C84.8647 158.028 85.1396 157.526 85.4746 157.345L96.6932 151.139C97.0282 150.95 97.3031 151.148 97.3031 151.576V157.114C97.3031 157.542 97.0282 158.036 96.6932 158.225Z" fill="white"></path> <path d="M130.443 119.767L125.701 113.413C125.332 112.92 125.667 111.718 126.268 111.389L135.76 106.138C136.361 105.809 136.696 106.64 136.327 107.537L131.585 119.141C131.293 119.849 130.735 120.154 130.443 119.767Z" fill="#353747"></path> <path d="M135.838 133.873L131.44 141.131C131.183 141.551 130.839 141.749 130.581 141.609L126.183 139.206C125.797 138.992 125.797 138.144 126.183 137.502L130.581 130.243C130.839 129.824 131.183 129.626 131.44 129.766L135.838 132.169C136.225 132.383 136.225 133.239 135.838 133.873Z" fill="#5AB0FF"></path> <path d="M95.9112 177.269L91.5131 184.528C91.2554 184.947 90.9118 185.145 90.6541 185.005L86.256 182.602C85.8694 182.388 85.8694 181.54 86.256 180.898L90.6541 173.64C90.9118 173.22 91.2554 173.022 91.5131 173.162L95.9112 175.565C96.2977 175.779 96.2977 176.635 95.9112 177.269Z" fill="#5AB0FF"></path> <path d="M74.4461 151.675C74.3773 151.675 74.3086 151.642 74.2657 151.576C74.2055 151.485 74.2399 151.362 74.343 151.312L87.5888 143.988C87.6833 143.93 87.8122 143.963 87.8637 144.062C87.9238 144.152 87.8895 144.276 87.7864 144.325L74.5406 151.65C74.5148 151.666 74.4804 151.675 74.4461 151.675Z" fill="#353747"></path> <path d="M74.4461 153.518C74.3773 153.518 74.3086 153.485 74.2657 153.419C74.2055 153.328 74.2399 153.205 74.343 153.156L87.5888 145.831C87.6833 145.773 87.8122 145.806 87.8637 145.905C87.9238 145.996 87.8895 146.119 87.7864 146.169L74.5406 153.493C74.5148 153.51 74.4804 153.518 74.4461 153.518Z" fill="#E7E9F8"></path> <path d="M74.4461 155.361C74.3773 155.361 74.3086 155.328 74.2657 155.263C74.2055 155.172 74.2399 155.049 74.343 154.999L87.5888 147.675C87.6833 147.625 87.8122 147.65 87.8637 147.749C87.9238 147.839 87.8895 147.963 87.7864 148.012L74.5406 155.337C74.5148 155.353 74.4804 155.361 74.4461 155.361Z" fill="#E7E9F8"></path> <path d="M74.4461 157.196C74.3773 157.196 74.3086 157.164 74.2657 157.098C74.2055 157.007 74.2399 156.884 74.343 156.834L87.5888 149.51C87.6833 149.452 87.8122 149.485 87.8637 149.584C87.9238 149.674 87.8895 149.798 87.7864 149.847L74.5406 157.172C74.5148 157.188 74.4804 157.196 74.4461 157.196Z" fill="#E7E9F8"></path> <path d="M68.6201 130.137C68.5514 130.137 68.4827 130.104 68.4397 130.038C68.3796 129.947 68.414 129.824 68.5171 129.775L81.7629 122.45C81.8574 122.401 81.9862 122.425 82.0378 122.524C82.0979 122.615 82.0636 122.738 81.9605 122.787L68.7146 130.112C68.6974 130.128 68.6545 130.137 68.6201 130.137Z" fill="#353747"></path> <path d="M68.6201 131.972C68.5514 131.972 68.4827 131.939 68.4397 131.873C68.3796 131.783 68.414 131.659 68.5171 131.61L81.7629 124.285C81.8574 124.228 81.9862 124.261 82.0378 124.359C82.0979 124.45 82.0636 124.573 81.9605 124.623L68.7146 131.947C68.6974 131.964 68.6545 131.972 68.6201 131.972Z" fill="#E7E9F8"></path> <path d="M68.6201 133.815C68.5514 133.815 68.4827 133.782 68.4397 133.717C68.3796 133.626 68.414 133.503 68.5171 133.453L81.7629 126.129C81.8574 126.071 81.9862 126.104 82.0378 126.203C82.0979 126.293 82.0636 126.417 81.9605 126.466L68.7146 133.791C68.6974 133.807 68.6545 133.815 68.6201 133.815Z" fill="#E7E9F8"></path> <path d="M68.6201 135.659C68.5514 135.659 68.4827 135.626 68.4397 135.56C68.3796 135.469 68.414 135.346 68.5171 135.297L81.7629 127.972C81.8574 127.923 81.9862 127.947 82.0378 128.046C82.0979 128.137 82.0636 128.26 81.9605 128.309L68.7146 135.634C68.6974 135.65 68.6545 135.659 68.6201 135.659Z" fill="#E7E9F8"></path> <path d="M104.682 134.729C104.613 134.729 104.545 134.696 104.502 134.63C104.442 134.54 104.476 134.416 104.579 134.367L117.825 127.043C117.919 126.985 118.048 127.018 118.1 127.117C118.16 127.207 118.126 127.331 118.022 127.38L104.777 134.705C104.759 134.721 104.717 134.729 104.682 134.729Z" fill="#353747"></path> <path d="M104.682 136.564C104.613 136.564 104.545 136.531 104.502 136.466C104.442 136.375 104.476 136.252 104.579 136.202L117.825 128.878C117.919 128.82 118.048 128.853 118.1 128.952C118.16 129.042 118.126 129.166 118.022 129.215L104.777 136.54C104.759 136.556 104.717 136.564 104.682 136.564Z" fill="#E7E9F8"></path> <path d="M104.682 138.408C104.613 138.408 104.545 138.375 104.502 138.309C104.442 138.219 104.476 138.095 104.579 138.046L117.825 130.721C117.919 130.664 118.048 130.697 118.1 130.795C118.16 130.886 118.126 131.009 118.022 131.059L104.777 138.383C104.759 138.4 104.717 138.408 104.682 138.408Z" fill="#E7E9F8"></path> <path d="M104.682 140.251C104.613 140.251 104.545 140.218 104.502 140.152C104.442 140.062 104.476 139.938 104.579 139.889L117.825 132.564C117.919 132.515 118.048 132.54 118.1 132.638C118.16 132.729 118.126 132.852 118.022 132.902L104.777 140.226C104.759 140.243 104.717 140.251 104.682 140.251Z" fill="#E7E9F8"></path> <path d="M123.855 103.249C123.786 103.249 123.717 103.217 123.674 103.151C123.614 103.06 123.648 102.937 123.751 102.887L136.997 95.5628C137.092 95.5052 137.221 95.5381 137.272 95.6368C137.332 95.7274 137.298 95.8508 137.195 95.9002L123.949 103.225C123.923 103.241 123.889 103.249 123.855 103.249Z" fill="#353747"></path> <path d="M123.855 105.093C123.786 105.093 123.717 105.06 123.674 104.994C123.614 104.904 123.648 104.78 123.751 104.731L136.997 97.4065C137.092 97.3489 137.221 97.3818 137.272 97.4806C137.332 97.5711 137.298 97.6946 137.195 97.7439L123.949 105.069C123.923 105.085 123.889 105.093 123.855 105.093Z" fill="#E7E9F8"></path> <path d="M123.855 106.928C123.786 106.928 123.717 106.895 123.674 106.83C123.614 106.739 123.648 106.616 123.751 106.566L136.997 99.2417C137.092 99.1924 137.221 99.217 137.272 99.3158C137.332 99.4063 137.298 99.5298 137.195 99.5792L123.949 106.904C123.923 106.92 123.889 106.928 123.855 106.928Z" fill="#E7E9F8"></path> <path d="M123.855 108.772C123.786 108.772 123.717 108.739 123.674 108.673C123.614 108.582 123.648 108.459 123.751 108.41L136.997 101.085C137.092 101.027 137.221 101.06 137.272 101.159C137.332 101.25 137.298 101.373 137.195 101.422L123.949 108.747C123.923 108.763 123.889 108.772 123.855 108.772Z" fill="#E7E9F8"></path> <path d="M136.131 123.858C136.062 123.858 135.993 123.825 135.95 123.759C135.89 123.668 135.924 123.545 136.028 123.496L149.273 116.171C149.368 116.113 149.497 116.146 149.548 116.245C149.608 116.336 149.574 116.459 149.471 116.508L136.225 123.833C136.199 123.849 136.165 123.858 136.131 123.858Z" fill="#353747"></path> <path d="M136.131 125.701C136.062 125.701 135.993 125.668 135.95 125.602C135.89 125.512 135.924 125.388 136.028 125.339L149.273 118.014C149.368 117.957 149.497 117.989 149.548 118.088C149.608 118.179 149.574 118.302 149.471 118.352L136.225 125.676C136.199 125.693 136.165 125.701 136.131 125.701Z" fill="#E7E9F8"></path> <path d="M136.131 127.537C136.062 127.537 135.993 127.504 135.95 127.438C135.89 127.347 135.924 127.224 136.028 127.174L149.273 119.85C149.368 119.792 149.497 119.825 149.548 119.924C149.608 120.014 149.574 120.138 149.471 120.187L136.225 127.512C136.199 127.528 136.165 127.537 136.131 127.537Z" fill="#E7E9F8"></path> <path d="M136.131 129.379C136.062 129.379 135.993 129.346 135.95 129.281C135.89 129.19 135.924 129.067 136.028 129.017L149.273 121.693C149.368 121.643 149.497 121.668 149.548 121.767C149.608 121.857 149.574 121.981 149.471 122.03L136.225 129.355C136.199 129.371 136.165 129.379 136.131 129.379Z" fill="#E7E9F8"></path> <path d="M136.131 142.16C136.062 142.16 135.993 142.127 135.95 142.062C135.89 141.971 135.924 141.848 136.028 141.798L149.273 134.474C149.368 134.416 149.497 134.449 149.548 134.548C149.608 134.638 149.574 134.762 149.471 134.811L136.225 142.136C136.199 142.152 136.165 142.16 136.131 142.16Z" fill="#353747"></path> <path d="M136.131 144.004C136.062 144.004 135.993 143.971 135.95 143.905C135.89 143.815 135.924 143.691 136.028 143.642L149.273 136.317C149.368 136.268 149.497 136.293 149.548 136.391C149.608 136.482 149.574 136.605 149.471 136.655L136.225 143.979C136.199 143.996 136.165 144.004 136.131 144.004Z" fill="#E7E9F8"></path> <path d="M136.131 145.839C136.062 145.839 135.993 145.806 135.95 145.741C135.89 145.65 135.924 145.527 136.028 145.477L149.273 138.153C149.368 138.095 149.497 138.128 149.548 138.227C149.608 138.317 149.574 138.441 149.471 138.49L136.225 145.815C136.199 145.831 136.165 145.839 136.131 145.839Z" fill="#E7E9F8"></path> <path d="M136.131 147.683C136.062 147.683 135.993 147.65 135.95 147.584C135.89 147.493 135.924 147.37 136.028 147.32L149.273 139.996C149.368 139.947 149.497 139.971 149.548 140.07C149.608 140.16 149.574 140.284 149.471 140.333L136.225 147.658C136.199 147.674 136.165 147.683 136.131 147.683Z" fill="#E7E9F8"></path> <path d="M73.791 193.226C73.7223 193.226 73.6536 193.194 73.6106 193.128C73.5505 193.037 73.5849 192.914 73.688 192.864L86.9338 185.54C87.0283 185.482 87.1571 185.515 87.2087 185.614C87.2688 185.704 87.2344 185.828 87.1314 185.877L73.8941 193.202C73.8598 193.218 73.8254 193.226 73.791 193.226Z" fill="#353747"></path> <path d="M73.791 195.07C73.7223 195.07 73.6536 195.037 73.6106 194.972C73.5505 194.881 73.5849 194.758 73.688 194.708L86.9338 187.384C87.0283 187.334 87.1571 187.359 87.2087 187.458C87.2688 187.548 87.2344 187.672 87.1314 187.721L73.8855 195.046C73.8598 195.062 73.8254 195.07 73.791 195.07Z" fill="#E7E9F8"></path> <path d="M73.791 196.914C73.7223 196.914 73.6536 196.881 73.6106 196.815C73.5505 196.725 73.5849 196.601 73.688 196.552L86.9338 189.227C87.0283 189.169 87.1571 189.202 87.2087 189.301C87.2688 189.392 87.2344 189.515 87.1314 189.565L73.8855 196.889C73.8598 196.906 73.8254 196.914 73.791 196.914Z" fill="#E7E9F8"></path> <path d="M73.791 198.749C73.7223 198.749 73.6536 198.716 73.6106 198.65C73.5505 198.559 73.5849 198.436 73.688 198.387L86.9338 191.062C87.0283 191.004 87.1571 191.037 87.2087 191.136C87.2688 191.227 87.2344 191.35 87.1314 191.399L73.8855 198.724C73.8598 198.74 73.8254 198.749 73.791 198.749Z" fill="#E7E9F8"></path> <path d="M61.3684 143.366L33.5894 158.699C32.9783 159.034 32.4836 159.861 32.4836 160.539V192.618C32.4836 193.296 32.988 194.114 33.5991 194.448L35.7135 195.601C36.3343 195.935 37.3236 195.926 37.9347 195.591L65.7137 180.258C66.3248 179.924 66.8195 179.097 66.8195 178.419V146.34C66.8195 145.662 66.3151 144.844 65.704 144.509L63.5896 143.357C62.9785 143.023 61.9892 143.023 61.3684 143.366Z" fill="#5AB0FF"></path> <path opacity="0.2" d="M37.9346 195.591C37.343 195.917 36.2663 195.935 35.7038 195.601L33.5893 194.448C32.9782 194.123 32.4739 193.296 32.4739 192.618V160.539C32.4739 160.186 32.6097 159.796 32.8231 159.452L37.1393 161.85C36.9356 162.175 36.8095 162.556 36.8095 162.9V194.978C36.8289 195.601 37.2848 195.954 37.9346 195.591Z" fill="black"></path> <path opacity="0.5" d="M66.8096 146.145C66.7223 145.606 66.2665 145.42 65.7136 145.727L37.9346 161.06C37.6242 161.227 37.3526 161.524 37.1489 161.859L32.823 159.461C33.0267 159.145 33.2886 158.867 33.5893 158.709L61.3683 143.376C61.9794 143.041 62.9687 143.032 63.5894 143.366L65.7039 144.519C66.2665 144.807 66.732 145.513 66.8096 146.145Z" fill="white"></path> <path d="M65.7136 145.718L37.9346 161.051C37.3235 161.385 36.8289 162.212 36.8289 162.891V183.279V194.978C36.8289 195.657 37.3235 195.935 37.9346 195.592L65.7136 180.259C66.3247 179.924 66.8193 179.097 66.8193 178.419V146.34C66.829 145.653 66.3344 145.383 65.7136 145.718Z" fill="#5AB0FF"></path> <path d="M38.6621 177.666C38.6621 177.406 38.7009 177.192 38.7882 177.006C38.8658 176.82 38.9822 176.616 39.1374 176.393L45.6942 166.245C45.733 166.189 45.7718 166.152 45.8009 166.124C45.83 166.106 45.8493 166.087 45.8784 166.069C45.9754 166.013 46.0627 166.013 46.1209 166.078C46.1888 166.134 46.2179 166.245 46.2179 166.385V170.297C46.2179 170.622 46.15 170.891 46.0336 171.115C45.9075 171.338 45.8009 171.514 45.6942 171.653L42.8231 175.872L45.6942 176.941C45.7912 176.969 45.9075 177.015 46.0336 177.09C46.1597 177.164 46.2179 177.368 46.2179 177.684V181.597C46.2179 181.745 46.1888 181.885 46.1209 182.015C46.053 182.145 45.9754 182.238 45.8784 182.294C45.859 182.303 45.83 182.312 45.8009 182.322C45.7718 182.331 45.733 182.331 45.6942 182.322L39.1374 179.422C38.9822 179.366 38.8658 179.283 38.7882 179.19C38.7106 179.097 38.6621 178.92 38.6621 178.669V177.666Z" fill="white"></path> <path d="M52.9493 160.456C53.0075 160.251 53.0851 160.038 53.1918 159.824C53.2985 159.61 53.4634 159.443 53.6671 159.331L55.8591 158.114C55.9561 158.058 56.0434 158.068 56.1113 158.133C56.1792 158.198 56.218 158.3 56.218 158.449C56.218 158.514 56.2083 158.588 56.1889 158.681L50.6506 181.299C50.6118 181.485 50.5342 181.69 50.4178 181.913C50.3111 182.136 50.1462 182.303 49.9231 182.424L47.7795 183.613C47.6825 183.669 47.5952 183.66 47.5273 183.595C47.4595 183.53 47.4207 183.427 47.4207 183.279C47.4207 183.214 47.4304 183.139 47.4595 183.046L52.9493 160.456Z" fill="white"></path> <path d="M64.996 164.117C64.996 164.377 64.9572 164.591 64.8699 164.777C64.7923 164.963 64.6662 165.167 64.5207 165.399L57.9639 175.547C57.9252 175.603 57.8864 175.64 57.8573 175.668C57.8282 175.686 57.8088 175.705 57.7797 175.724C57.6827 175.779 57.5954 175.779 57.5372 175.714C57.4693 175.658 57.4402 175.547 57.4402 175.408V171.495C57.4402 171.17 57.4984 170.901 57.6245 170.687C57.7506 170.473 57.867 170.297 57.9639 170.167L60.835 165.92L57.9639 164.87C57.867 164.842 57.7506 164.786 57.6245 164.702C57.4984 164.619 57.4402 164.414 57.4402 164.089V160.177C57.4402 160.028 57.4693 159.889 57.5372 159.759C57.6051 159.629 57.6827 159.536 57.7797 159.48C57.7991 159.471 57.8282 159.461 57.8573 159.452C57.8864 159.443 57.9252 159.443 57.9639 159.452L64.5207 162.351C64.6759 162.407 64.7923 162.491 64.8699 162.574C64.9475 162.667 64.996 162.844 64.996 163.095V164.117Z" fill="white"></path> <path d="M247.819 49.4243L247.829 162.73C247.829 164.468 246.549 166.577 244.987 167.441L169.429 209.221C169.099 209.398 168.779 209.491 168.488 209.481C168.362 209.481 168.246 209.463 168.129 209.435C168.042 209.416 167.964 209.389 167.887 209.351C167.829 209.324 167.78 209.296 167.741 209.268C167.683 209.231 167.625 209.193 167.576 209.156C167.518 209.11 167.46 209.073 167.421 209.026C167.198 208.831 167.033 208.589 166.897 208.311C166.713 207.911 166.597 207.437 166.597 206.935V94.308C166.597 92.5795 167.877 90.4608 169.439 89.5966L244.997 47.8631C245.734 47.4635 246.393 47.3985 246.908 47.6308C246.995 47.668 247.063 47.7052 247.15 47.7702C247.218 47.8445 247.819 48.272 247.819 49.4243Z" fill="#353747"></path> <path d="M246.238 48.4395C246.326 48.4395 246.403 48.4581 246.491 48.4953C246.5 48.4953 246.51 48.5046 246.539 48.5232C246.568 48.5417 246.84 48.7648 246.84 49.4245L246.849 162.73C246.849 164.143 245.773 165.936 244.493 166.642L168.934 208.422C168.711 208.543 168.566 208.562 168.478 208.562C168.478 208.562 168.478 208.562 168.469 208.562C168.449 208.562 168.401 208.562 168.304 208.534C168.275 208.525 168.255 208.506 168.255 208.506L168.149 208.441L168.12 208.422L168.1 208.413L168.09 208.404L168.042 208.357C167.926 208.255 167.829 208.125 167.751 207.948C167.615 207.642 167.538 207.298 167.538 206.954V94.3268C167.538 92.9422 168.643 91.1115 169.895 90.4146L245.443 48.6811C245.831 48.4767 246.093 48.4395 246.238 48.4395ZM246.238 47.5103C245.86 47.5103 245.433 47.6311 244.977 47.8727L169.419 89.6061C167.858 90.4703 166.577 92.5891 166.577 94.3175V206.945C166.577 207.447 166.694 207.921 166.878 208.32C167.004 208.599 167.179 208.841 167.402 209.036C167.45 209.091 167.509 209.129 167.557 209.166C167.615 209.203 167.673 209.24 167.722 209.277C167.77 209.305 167.819 209.333 167.867 209.361C167.945 209.398 168.023 209.426 168.11 209.445C168.226 209.472 168.352 209.491 168.469 209.491C168.478 209.491 168.498 209.491 168.508 209.491C168.789 209.491 169.099 209.398 169.41 209.231L244.968 167.451C246.529 166.587 247.81 164.477 247.81 162.74L247.8 49.4338C247.8 48.2815 247.199 47.8541 247.121 47.789C247.034 47.724 246.966 47.6868 246.879 47.6496C246.694 47.5567 246.481 47.5103 246.238 47.5103Z" fill="#353747"></path> <g opacity="0.8"> <path opacity="0.8" d="M247.819 49.4243L247.829 162.73C247.829 164.468 246.549 166.577 244.987 167.441L169.429 209.221C169.099 209.398 168.779 209.491 168.488 209.481C168.362 209.481 168.246 209.463 168.129 209.435C168.042 209.416 167.964 209.389 167.887 209.351C167.829 209.324 167.78 209.296 167.741 209.268C167.683 209.231 167.625 209.193 167.576 209.156C167.518 209.11 167.46 209.073 167.421 209.026C167.198 208.831 167.033 208.589 166.897 208.311C166.713 207.911 166.597 207.437 166.597 206.935V94.308C166.597 92.5795 167.877 90.4608 169.439 89.5966L244.997 47.8631C245.734 47.4635 246.393 47.3985 246.908 47.6308C246.995 47.668 247.063 47.7052 247.15 47.7702C247.218 47.8445 247.819 48.272 247.819 49.4243Z" fill="#353747"></path> </g> <path d="M246.888 47.6401C246.374 47.4078 245.715 47.4728 244.977 47.8724L169.419 89.6058C167.858 90.4701 166.577 92.5888 166.577 94.3172V103.21L162.95 101.175V92.3472C162.95 90.6188 164.22 88.5093 165.782 87.6451L241.35 45.9117C242.165 45.4563 242.882 45.447 243.406 45.7537C243.93 46.0418 246.287 47.3427 246.888 47.6401Z" fill="#6BEAC7"></path> <path d="M247.819 49.4242C247.81 47.7051 246.539 47.0081 244.987 47.8724L169.429 89.6058C167.858 90.47 166.587 92.5794 166.587 94.3172V103.21L247.819 58.3452V49.4242Z" fill="#6BEAC7"></path> <g opacity="0.4"> <path opacity="0.4" d="M244.977 47.8724L169.419 89.6059C168.643 90.0426 167.926 90.7768 167.421 91.6224L163.813 89.6245C164.317 88.7881 165.016 88.054 165.792 87.6358L241.35 45.9024C242.165 45.447 242.882 45.4377 243.416 45.7444C243.92 46.0418 246.277 47.3242 246.878 47.6308C246.384 47.4078 245.715 47.4728 244.977 47.8724Z" fill="white"></path> </g> <path opacity="0.15" d="M162.959 101.185V92.3473C162.959 91.4645 163.299 90.4887 163.823 89.6245L167.441 91.6131C166.917 92.4681 166.597 93.4345 166.597 94.3173V103.21L162.959 101.185Z" fill="black"></path> <path d="M230.719 59.5533C229.837 60.0458 229.119 61.4955 229.119 62.8057C229.119 64.116 229.837 64.7758 230.719 64.2833C231.602 63.7908 232.32 62.3411 232.32 61.0308C232.329 59.7206 231.612 59.0608 230.719 59.5533Z" fill="#FAFAFA"></path> <path d="M236.5 56.3473C235.617 56.8398 234.9 58.2895 234.9 59.5997C234.9 60.91 235.617 61.5698 236.5 61.0773C237.383 60.5848 238.1 59.1351 238.1 57.8248C238.1 56.5238 237.383 55.8641 236.5 56.3473Z" fill="#FAFAFA"></path> <path d="M242.271 53.1507C241.389 53.6432 240.671 55.0929 240.671 56.4031C240.671 57.7134 241.389 58.3732 242.271 57.8807C243.154 57.3882 243.872 55.9385 243.872 54.6282C243.872 53.318 243.154 52.6582 242.271 53.1507Z" fill="#FAFAFA"></path> <path d="M167.625 209.231C167.518 209.166 167.402 209.11 167.266 209.035C167.004 208.887 166.703 208.719 166.393 208.562L166.383 208.552C166.228 208.459 166.063 208.376 165.908 208.292C165.898 208.283 165.879 208.273 165.869 208.273C165.607 208.134 165.355 207.985 165.122 207.865C164.88 207.734 164.667 207.614 164.502 207.53C164.337 207.428 164.201 207.372 164.143 207.344C163.968 207.251 163.794 207.13 163.658 206.972C163.512 206.824 163.376 206.638 163.279 206.415C163.076 206.006 162.95 205.504 162.95 204.975V101.175L166.577 103.21V206.945C166.606 207.484 166.703 207.939 166.878 208.32C167.004 208.599 167.179 208.84 167.402 209.035C167.441 209.091 167.499 209.138 167.557 209.166C167.576 209.193 167.596 209.212 167.625 209.231Z" fill="#737688"></path> <path d="M173.687 106.983C173.687 106.863 173.726 106.732 173.794 106.602L175.307 103.601C175.336 103.554 175.355 103.526 175.375 103.508C175.394 103.489 175.404 103.48 175.414 103.48C175.462 103.452 175.501 103.461 175.53 103.489C175.559 103.517 175.578 103.573 175.578 103.638V104.651C175.578 104.781 175.569 104.883 175.549 104.967C175.53 105.05 175.491 105.134 175.443 105.246L174.647 106.835L175.443 107.541C175.491 107.587 175.53 107.643 175.549 107.699C175.569 107.755 175.578 107.848 175.578 107.978V108.991C175.578 109.056 175.559 109.13 175.53 109.195C175.501 109.26 175.452 109.306 175.414 109.334C175.404 109.334 175.394 109.344 175.375 109.353C175.355 109.362 175.326 109.353 175.307 109.344L173.794 108.015C173.726 107.968 173.687 107.875 173.687 107.755V106.983Z" fill="#6BEAC7"></path> <path d="M179.235 99.4469C179.264 99.354 179.303 99.2518 179.351 99.1496C179.4 99.0474 179.478 98.973 179.574 98.9173L180.147 98.6013C180.195 98.5734 180.234 98.5827 180.263 98.6106C180.292 98.6385 180.312 98.6942 180.312 98.7593C180.312 98.7872 180.312 98.8243 180.292 98.8708L177.693 109.483C177.673 109.567 177.635 109.669 177.586 109.771C177.538 109.873 177.46 109.957 177.353 110.013L176.81 110.31C176.762 110.338 176.723 110.329 176.694 110.301C176.665 110.273 176.645 110.217 176.645 110.152C176.645 110.124 176.645 110.087 176.665 110.041L179.235 99.4469Z" fill="#6BEAC7"></path> <path d="M183.251 102.439C183.251 102.56 183.212 102.69 183.144 102.82L181.631 105.822C181.602 105.868 181.582 105.896 181.563 105.915C181.543 105.933 181.534 105.942 181.524 105.942C181.476 105.97 181.437 105.961 181.408 105.933C181.379 105.905 181.359 105.85 181.359 105.785V104.772C181.359 104.642 181.369 104.539 181.388 104.456C181.408 104.372 181.446 104.288 181.495 104.177L182.29 102.588L181.495 101.882C181.446 101.835 181.408 101.779 181.388 101.724C181.369 101.668 181.359 101.575 181.359 101.445V100.432C181.359 100.367 181.379 100.293 181.408 100.227C181.437 100.162 181.485 100.116 181.524 100.088C181.524 100.088 181.543 100.079 181.563 100.07C181.582 100.06 181.611 100.07 181.631 100.079L183.144 101.408C183.212 101.454 183.251 101.547 183.251 101.668V102.439Z" fill="#6BEAC7"></path> <path d="M187.47 101.742C187.528 101.714 187.576 101.714 187.615 101.752C187.654 101.789 187.673 101.854 187.673 101.937V103.053C187.673 103.136 187.654 103.22 187.615 103.303C187.576 103.387 187.528 103.443 187.47 103.471L186.752 103.87C186.694 103.898 186.645 103.898 186.607 103.861C186.568 103.824 186.548 103.759 186.548 103.675V102.56C186.548 102.476 186.568 102.393 186.607 102.309C186.645 102.226 186.694 102.17 186.752 102.142L187.47 101.742Z" fill="#6BEAC7"></path> <path d="M189.856 100.423C189.914 100.395 189.962 100.395 190.001 100.432C190.04 100.469 190.059 100.534 190.059 100.618V101.733C190.059 101.817 190.04 101.9 190.001 101.984C189.962 102.067 189.914 102.123 189.856 102.151L189.138 102.551C189.08 102.579 189.031 102.579 188.993 102.541C188.954 102.504 188.934 102.439 188.934 102.356V101.24C188.934 101.157 188.954 101.073 188.993 100.99C189.031 100.906 189.08 100.85 189.138 100.822L189.856 100.423Z" fill="#6BEAC7"></path> <path d="M192.252 99.1031C192.31 99.0752 192.358 99.0752 192.397 99.1124C192.436 99.1496 192.455 99.2146 192.455 99.2983V100.413C192.455 100.497 192.436 100.581 192.397 100.664C192.358 100.748 192.31 100.804 192.252 100.832L191.534 101.231C191.476 101.259 191.427 101.259 191.388 101.222C191.349 101.185 191.33 101.12 191.33 101.036V99.9209C191.33 99.8373 191.349 99.7536 191.388 99.67C191.427 99.5863 191.476 99.5306 191.534 99.5027L192.252 99.1031Z" fill="#6BEAC7"></path> <path d="M174.327 115.086L223.251 88.0262C223.668 87.7938 223.998 87.9611 223.998 88.3886C223.998 88.816 223.658 89.355 223.251 89.578L174.327 116.638C173.91 116.871 173.58 116.703 173.58 116.276C173.58 115.848 173.91 115.319 174.327 115.086Z" fill="#6BEAC7"></path> <path d="M185.569 127.52L234.492 100.46C234.909 100.227 235.239 100.395 235.239 100.822C235.239 101.25 234.9 101.789 234.492 102.012L185.569 129.072C185.152 129.304 184.822 129.137 184.822 128.71C184.822 128.282 185.152 127.752 185.569 127.52Z" fill="#F28F8F"></path> <path d="M185.569 133.746L216.228 116.796C216.645 116.564 216.975 116.731 216.975 117.159C216.975 117.586 216.636 118.125 216.228 118.348L185.569 135.298C185.152 135.53 184.822 135.363 184.822 134.936C184.822 134.508 185.152 133.969 185.569 133.746Z" fill="#F28F8F"></path> <path d="M185.569 139.963L216.228 123.013C216.645 122.781 216.975 122.948 216.975 123.376C216.975 123.803 216.636 124.342 216.228 124.565L185.569 141.515C185.152 141.747 184.822 141.58 184.822 141.153C184.822 140.725 185.152 140.186 185.569 139.963Z" fill="#F28F8F"></path> <path d="M226.151 86.4186L240.108 78.6685C240.525 78.4362 240.855 78.6034 240.855 79.0309C240.855 79.4584 240.516 79.9973 240.108 80.2204L226.151 87.9705C225.734 88.2028 225.404 88.0355 225.404 87.6081C225.404 87.1806 225.744 86.6509 226.151 86.4186Z" fill="#6BEAC7"></path> <path d="M186.384 176.883L223.251 156.42C223.668 156.188 223.998 156.355 223.998 156.783C223.998 157.21 223.658 157.749 223.251 157.972L186.384 178.435C185.967 178.667 185.637 178.5 185.637 178.072C185.637 177.645 185.976 177.106 186.384 176.883Z" fill="#6BEAC7"></path> <path d="M226.151 154.813L240.108 147.063C240.525 146.83 240.855 146.997 240.855 147.425C240.855 147.852 240.516 148.391 240.108 148.614L226.151 156.364C225.734 156.597 225.404 156.43 225.404 156.002C225.404 155.575 225.744 155.045 226.151 154.813Z" fill="#6BEAC7"></path> <path d="M192.688 154.646L240.118 128.44C240.535 128.208 240.865 128.375 240.865 128.803C240.865 129.23 240.525 129.769 240.118 129.992L192.688 156.197C192.271 156.43 191.941 156.262 191.941 155.835C191.931 155.408 192.271 154.878 192.688 154.646Z" fill="#6BEAC7"></path> <path d="M180.777 167.665L240.108 134.666C240.525 134.434 240.855 134.601 240.855 135.029C240.855 135.456 240.516 135.995 240.108 136.218L180.777 169.216C180.36 169.449 180.03 169.282 180.03 168.854C180.03 168.427 180.37 167.888 180.777 167.665Z" fill="#6BEAC7"></path> <path d="M183.571 172.227L223.251 150.204C223.668 149.971 223.998 150.139 223.998 150.566C223.998 150.994 223.658 151.533 223.251 151.756L183.571 173.779C183.153 174.012 182.824 173.844 182.824 173.417C182.824 172.989 183.153 172.46 183.571 172.227Z" fill="#FFA8A7"></path> <path d="M180.777 161.215L188.624 156.876C189.041 156.643 189.371 156.811 189.371 157.238C189.371 157.666 189.031 158.205 188.624 158.428L180.777 162.767C180.36 163 180.03 162.832 180.03 162.405C180.03 161.977 180.37 161.438 180.777 161.215Z" fill="#6BEAC7"></path> <path d="M174.327 121.322L208.653 102.328C209.07 102.095 209.4 102.263 209.4 102.69C209.4 103.118 209.061 103.657 208.653 103.88L174.327 122.874C173.91 123.106 173.58 122.939 173.58 122.511C173.58 122.084 173.91 121.545 174.327 121.322Z" fill="#6BEAC7"></path> <path opacity="0.6" d="M174.327 121.322L208.653 102.328C209.07 102.095 209.4 102.263 209.4 102.69C209.4 103.118 209.061 103.657 208.653 103.88L174.327 122.874C173.91 123.106 173.58 122.939 173.58 122.511C173.58 122.084 173.91 121.545 174.327 121.322Z" fill="white"></path> <path d="M174.327 127.529L181.262 123.691C181.679 123.459 182.009 123.626 182.009 124.054C182.009 124.481 181.67 125.02 181.262 125.243L174.327 129.081C173.91 129.314 173.58 129.146 173.58 128.719C173.58 128.291 173.91 127.752 174.327 127.529Z" fill="#6BEAC7"></path> <path opacity="0.6" d="M174.327 127.529L181.262 123.691C181.679 123.459 182.009 123.626 182.009 124.054C182.009 124.481 181.67 125.02 181.262 125.243L174.327 129.081C173.91 129.314 173.58 129.146 173.58 128.719C173.58 128.291 173.91 127.752 174.327 127.529Z" fill="white"></path> <path d="M174.327 133.746L181.262 129.908C181.679 129.676 182.009 129.843 182.009 130.271C182.009 130.698 181.67 131.237 181.262 131.46L174.327 135.298C173.91 135.53 173.58 135.363 173.58 134.936C173.58 134.508 173.91 133.969 174.327 133.746Z" fill="#6BEAC7"></path> <path opacity="0.6" d="M174.327 133.746L181.262 129.908C181.679 129.676 182.009 129.843 182.009 130.271C182.009 130.698 181.67 131.237 181.262 131.46L174.327 135.298C173.91 135.53 173.58 135.363 173.58 134.936C173.58 134.508 173.91 133.969 174.327 133.746Z" fill="white"></path> <path d="M174.327 139.963L181.262 136.125C181.679 135.893 182.009 136.06 182.009 136.488C182.009 136.915 181.67 137.454 181.262 137.677L174.327 141.515C173.91 141.747 173.58 141.58 173.58 141.153C173.58 140.725 173.91 140.195 174.327 139.963Z" fill="#6BEAC7"></path> <path opacity="0.6" d="M174.327 139.963L181.262 136.125C181.679 135.893 182.009 136.06 182.009 136.488C182.009 136.915 181.67 137.454 181.262 137.677L174.327 141.515C173.91 141.747 173.58 141.58 173.58 141.153C173.58 140.725 173.91 140.195 174.327 139.963Z" fill="white"></path> <path d="M174.327 146.18L181.262 142.342C181.679 142.11 182.009 142.277 182.009 142.704C182.009 143.132 181.67 143.671 181.262 143.894L174.327 147.732C173.91 147.964 173.58 147.797 173.58 147.369C173.58 146.942 173.91 146.412 174.327 146.18Z" fill="#6BEAC7"></path> <path opacity="0.6" d="M174.327 146.18L181.262 142.342C181.679 142.11 182.009 142.277 182.009 142.704C182.009 143.132 181.67 143.671 181.262 143.894L174.327 147.732C173.91 147.964 173.58 147.797 173.58 147.369C173.58 146.942 173.91 146.412 174.327 146.18Z" fill="white"></path> <path d="M185.569 183.704L216.228 166.754C216.645 166.522 216.975 166.689 216.975 167.116C216.975 167.544 216.636 168.083 216.228 168.306L185.569 185.256C185.152 185.488 184.822 185.321 184.822 184.893C184.822 184.466 185.152 183.927 185.569 183.704Z" fill="#F28F8F"></path> <path d="M185.569 189.92L216.228 172.97C216.645 172.738 216.975 172.905 216.975 173.333C216.975 173.76 216.636 174.299 216.228 174.522L185.569 191.472C185.152 191.705 184.822 191.537 184.822 191.11C184.822 190.682 185.152 190.153 185.569 189.92Z" fill="#F28F8F"></path> <path d="M220.68 164.282L239.943 153.67C240.36 153.437 240.69 153.605 240.69 154.032C240.69 154.46 240.351 154.999 239.943 155.222L220.68 165.834C220.263 166.066 219.934 165.899 219.934 165.471C219.934 165.044 220.273 164.505 220.68 164.282Z" fill="#F28F8F"></path> <path d="M220.68 170.499L239.943 159.887C240.36 159.654 240.69 159.821 240.69 160.249C240.69 160.676 240.351 161.215 239.943 161.438L220.68 172.051C220.263 172.283 219.934 172.116 219.934 171.688C219.934 171.261 220.273 170.731 220.68 170.499Z" fill="#F28F8F"></path> <path d="M174.327 189.92L181.262 186.083C181.679 185.85 182.009 186.018 182.009 186.445C182.009 186.872 181.67 187.411 181.262 187.634L174.327 191.472C173.91 191.705 173.58 191.537 173.58 191.11C173.58 190.682 173.91 190.153 174.327 189.92Z" fill="#6BEAC7"></path> <path opacity="0.6" d="M174.327 189.92L181.262 186.083C181.679 185.85 182.009 186.018 182.009 186.445C182.009 186.872 181.67 187.411 181.262 187.634L174.327 191.472C173.91 191.705 173.58 191.537 173.58 191.11C173.58 190.682 173.91 190.153 174.327 189.92Z" fill="white"></path> <path d="M174.327 196.137L181.262 192.299C181.679 192.067 182.009 192.234 182.009 192.662C182.009 193.089 181.67 193.628 181.262 193.851L174.327 197.689C173.91 197.921 173.58 197.754 173.58 197.327C173.58 196.899 173.91 196.37 174.327 196.137Z" fill="#6BEAC7"></path> <path opacity="0.6" d="M174.327 196.137L181.262 192.299C181.679 192.067 182.009 192.234 182.009 192.662C182.009 193.089 181.67 193.628 181.262 193.851L174.327 197.689C173.91 197.921 173.58 197.754 173.58 197.327C173.58 196.899 173.91 196.37 174.327 196.137Z" fill="white"></path> <path d="M211.553 100.72L220.438 95.8228C220.855 95.5905 221.185 95.7577 221.185 96.1852C221.185 96.6127 220.845 97.1516 220.438 97.3747L211.553 102.272C211.136 102.504 210.807 102.337 210.807 101.91C210.807 101.482 211.136 100.952 211.553 100.72Z" fill="#6BEAC7"></path> <path opacity="0.6" d="M211.553 100.72L220.438 95.8228C220.855 95.5905 221.185 95.7577 221.185 96.1852C221.185 96.6127 220.845 97.1516 220.438 97.3747L211.553 102.272C211.136 102.504 210.807 102.337 210.807 101.91C210.807 101.482 211.136 100.952 211.553 100.72Z" fill="white"></path> <path d="M185.035 146.422L228.314 122.512C228.731 122.279 229.061 122.446 229.061 122.874C229.061 123.301 228.721 123.84 228.314 124.063L185.035 147.973C184.618 148.206 184.289 148.038 184.289 147.611C184.289 147.184 184.628 146.645 185.035 146.422Z" fill="#FFA8A7"></path> <path d="M174.327 158.716L240.108 122.233C240.525 122 240.855 122.168 240.855 122.595C240.855 123.023 240.516 123.562 240.108 123.785L174.327 160.268C173.91 160.5 173.58 160.333 173.58 159.905C173.58 159.478 173.91 158.939 174.327 158.716Z" fill="#FFA8A7"></path> <path d="M231.224 120.904L240.108 116.006C240.525 115.774 240.855 115.941 240.855 116.369C240.855 116.796 240.516 117.335 240.108 117.558L231.224 122.456C230.807 122.688 230.477 122.521 230.477 122.093C230.477 121.666 230.816 121.136 231.224 120.904Z" fill="#FFA8A7"></path> <path d="M185.569 121.313L219.895 102.318C220.312 102.086 220.642 102.253 220.642 102.681C220.642 103.108 220.302 103.647 219.895 103.87L185.569 122.865C185.152 123.097 184.822 122.93 184.822 122.502C184.822 122.075 185.152 121.536 185.569 121.313Z" fill="#6BEAC7"></path> <path opacity="0.6" d="M185.569 121.313L219.895 102.318C220.312 102.086 220.642 102.253 220.642 102.681C220.642 103.108 220.302 103.647 219.895 103.87L185.569 122.865C185.152 123.097 184.822 122.93 184.822 122.502C184.822 122.075 185.152 121.536 185.569 121.313Z" fill="white"></path> <path d="M222.795 100.711L231.68 95.8135C232.097 95.5812 232.426 95.7485 232.426 96.1759C232.426 96.6034 232.087 97.1424 231.68 97.3654L222.795 102.263C222.378 102.495 222.048 102.328 222.048 101.9C222.048 101.473 222.378 100.934 222.795 100.711Z" fill="#6BEAC7"></path> <path opacity="0.6" d="M222.795 100.711L231.68 95.8135C232.097 95.5812 232.426 95.7485 232.426 96.1759C232.426 96.6034 232.087 97.1424 231.68 97.3654L222.795 102.263C222.378 102.495 222.048 102.328 222.048 101.9C222.048 101.473 222.378 100.934 222.795 100.711Z" fill="white"></path> <path d="M286.911 49.862L264.728 62.1562C264.292 62.3978 263.933 62.9832 263.933 64.1262V90.0993C263.933 89.932 264.292 90.5175 264.728 90.7498L267.881 92.4689C268.317 92.7105 269.035 92.7012 269.471 92.4596L291.654 80.1654C292.09 79.9238 292.449 79.3384 292.449 78.8551V52.8728C292.449 52.3896 292.09 51.8041 291.654 51.5625L288.501 49.8434C288.055 49.6111 287.347 49.6204 286.911 49.862Z" fill="#6BEAC7"></path> <path opacity="0.2" d="M269.471 92.4503C269.054 92.6826 268.278 92.6919 267.881 92.4596L264.728 90.7404C264.292 90.5081 263.933 89.9227 263.933 90.0899V64.1169C263.933 63.2155 264.03 62.9367 264.185 62.6858L268.909 65.2877C268.763 65.5201 268.676 65.7895 268.676 65.3807V91.3444C268.686 92.4503 269.006 92.7105 269.471 92.4503Z" fill="black"></path> <path opacity="0.4" d="M292.43 52.7335C292.371 52.3525 292.042 52.2131 291.644 52.4361L269.471 64.7304C269.248 64.8512 269.054 65.0556 268.909 65.2972L264.185 62.6953C264.331 62.463 264.515 62.2678 264.728 62.1563L286.911 49.8621C287.347 49.6205 288.055 49.6205 288.501 49.8528L291.654 51.5719C292.042 51.7857 292.381 52.2875 292.43 52.7335Z" fill="white"></path> <path d="M261.77 82.7211C261.275 82.433 257.483 80.3886 257.357 80.3236C256.988 80.1098 256.862 79.5894 257.202 79.2456L263.933 71.8486L268.676 74.4506L261.634 81.6617C261.304 81.9962 261.44 82.498 261.77 82.7211Z" fill="#6BEAC7"></path> <path opacity="0.4" d="M261.77 82.7211C261.275 82.433 257.483 80.3886 257.357 80.3236C256.988 80.1098 256.862 79.5894 257.202 79.2456L263.933 71.8486L268.676 74.4506L261.634 81.6617C261.304 81.9962 261.44 82.498 261.77 82.7211Z" fill="white"></path> <path d="M291.654 52.4362L269.471 64.7304C269.035 64.972 268.676 65.5574 268.676 66.0406V74.4505L261.624 81.6616C261.169 82.1263 261.498 82.7768 262.08 82.8232L268.676 82.3586V92.0137C268.676 92.4969 269.035 92.692 269.471 92.4504L291.654 80.1562C292.09 79.9146 292.449 79.3292 292.449 78.846V52.8729C292.439 52.3897 292.09 52.1945 291.654 52.4362Z" fill="#6BEAC7"></path> <path d="M287.541 59.6937C286.542 59.2941 285.378 59.7402 284.961 60.6973L277.512 77.6751L275.737 76.021C274.961 75.2961 273.71 75.3147 272.953 76.0581C272.197 76.8016 272.216 78.0003 272.992 78.7251L276.833 82.3028C277.202 82.6467 277.687 82.8325 278.211 82.8325C278.337 82.8325 278.472 82.8232 278.599 82.7953C279.239 82.6745 279.772 82.2471 280.024 81.6802L288.589 62.1563C289.006 61.1991 288.54 60.0933 287.541 59.6937Z" fill="#FAFAFA"></path> </svg> 