<?xml version="1.0" encoding="UTF-8"?> <svg xmlns="http://www.w3.org/2000/svg" width="143" height="31" viewBox="0 0 143 31" fill="none"> <path d="M1 2.97363V28.5611H9.92977C18.678 28.5611 24.486 24.3574 24.486 15.2556C24.486 7.39661 19.9122 2.97363 9.60307 2.97363H1ZM6.80798 23.0781V8.45666H10.0387C16.1734 8.45666 18.4239 10.9423 18.4239 15.6943C18.4239 20.1538 15.883 23.0781 10.1113 23.0781H6.80798Z" fill="white"></path> <path d="M36.7803 9.8457C30.5729 9.88226 26.7979 13.099 26.7979 19.3862C26.7979 25.783 30.8633 28.9998 36.4535 28.9998C42.6246 28.9632 46.436 25.783 46.436 19.4593C46.436 13.0624 42.3705 9.8457 36.7803 9.8457ZM32.4242 19.3496C32.4242 16.0598 33.9488 14.6708 36.5988 14.6708C39.0671 14.7073 40.8096 16.0964 40.8096 19.3862V19.4958C40.8096 22.7857 39.285 24.1747 36.6351 24.1747C34.1304 24.1747 32.4242 22.7857 32.4242 19.4593V19.3496Z" fill="white"></path> <path d="M60.9386 28.5612H66.4199V18.0704C66.3836 15.7675 67.5815 14.744 69.6143 14.744H69.6869C71.3567 14.7806 72.0827 15.731 72.0827 17.7414V28.5612H77.564V16.1696C77.564 12.0756 75.3497 9.95551 71.6834 9.91895H71.6471C68.7068 9.91895 66.7466 11.7101 66.1295 13.9033C65.4035 11.308 63.407 9.95551 60.5756 9.91895H60.5031C57.5991 9.91895 55.6026 11.8197 54.9855 13.8302V10.2845H49.8672V28.5612H55.3122V18.0704C55.2033 15.6213 56.3649 14.7806 58.434 14.744C60.2489 14.744 60.9386 15.6944 60.9386 17.7414V28.5612Z" fill="white"></path> <path d="M82.458 17.8511C83.6922 16.0234 85.3983 14.7075 89.2461 14.7075C91.4967 14.7075 92.1864 15.4751 92.1864 17.5221V17.6683H88.266C84.1641 17.6683 80.9697 18.838 80.9697 23.1879C80.9697 26.5874 82.9299 28.8537 86.7051 28.8537C89.5365 28.8537 91.6056 27.3915 92.4768 25.2714V28.5612H97.6314V16.4986C97.6314 11.9659 95.2356 9.91895 89.2461 9.91895C85.8339 9.91895 83.6559 10.5769 82.458 11.4907V17.8511ZM88.5927 24.0286C87.2133 24.0286 86.451 23.4438 86.451 22.4568C86.451 21.2871 87.4311 20.8485 89.1735 20.8485H92.1864V21.9085C92.0049 23.1513 90.6618 24.0286 88.5927 24.0286Z" fill="white"></path> <path d="M102.958 25.6735C102.958 27.4647 103.72 28.9268 106.225 28.9268C108.838 28.9268 109.6 27.4647 109.6 25.6735C109.6 23.8459 108.838 22.3472 106.225 22.3472C103.72 22.3472 102.958 23.8459 102.958 25.6735Z" fill="white"></path> <path d="M115.709 17.8511C116.943 16.0234 118.649 14.7075 122.497 14.7075C124.747 14.7075 125.437 15.4751 125.437 17.5221V17.6683H121.517C117.415 17.6683 114.221 18.838 114.221 23.1879C114.221 26.5874 116.181 28.8537 119.956 28.8537C122.787 28.8537 124.856 27.3915 125.728 25.2714V28.5612H130.882V16.4986C130.882 11.9659 128.486 9.91895 122.497 9.91895C119.085 9.91895 116.907 10.5769 115.709 11.4907V17.8511ZM121.843 24.0286C120.464 24.0286 119.702 23.4438 119.702 22.4568C119.702 21.2871 120.682 20.8485 122.424 20.8485H125.437V21.9085C125.256 23.1513 123.913 24.0286 121.843 24.0286Z" fill="white"></path> <path d="M134.974 3.81462C134.974 5.56919 136.172 6.70234 138.023 6.70234C139.802 6.70234 141 5.56919 141 3.81462C141 2.0966 139.802 1 138.023 1C136.172 1 134.974 2.0966 134.974 3.81462ZM135.265 28.5614H140.746V10.2846H135.265V28.5614Z" fill="white"></path> </svg> 