<?xml version="1.0" encoding="UTF-8"?> <svg xmlns="http://www.w3.org/2000/svg" width="124" height="42" viewBox="0 0 124 42" fill="none"> <rect width="124" height="42" rx="8" fill="#353747"></rect> <path fill-rule="evenodd" clip-rule="evenodd" d="M23.7462 12.3669C24.5379 11.384 25.0796 10.0467 24.9292 8.6897C23.7834 8.74006 22.3503 9.47658 21.5251 10.4379C20.795 11.2851 20.1428 12.6736 20.3113 13.9793C21.5985 14.0747 22.9201 13.3345 23.7462 12.3669ZM26.6449 20.8904C26.6188 18.0136 28.9994 16.6031 29.1431 16.5179L29.1459 16.5162C27.7772 14.5351 25.6557 14.2644 24.9102 14.2428C23.8201 14.1289 22.7501 14.5506 21.8757 14.8951C21.3208 15.1137 20.8448 15.3013 20.4924 15.3013C20.0913 15.3013 19.6015 15.1059 19.0526 14.887C18.3349 14.6007 17.5162 14.2741 16.6625 14.2914C14.724 14.3211 12.9105 15.4353 11.9159 17.1655C9.8633 20.6934 11.3942 25.8779 13.3608 28.7295C14.3445 30.127 15.494 31.6855 16.9986 31.6306C17.6815 31.6031 18.1659 31.4006 18.6663 31.1914C19.2447 30.9497 19.8445 30.699 20.7968 30.699C21.6951 30.699 22.2694 30.9417 22.8205 31.1745C23.3491 31.3979 23.8564 31.6123 24.6077 31.5947C26.1875 31.5713 27.1821 30.1927 28.1314 28.7826C29.2682 27.1836 29.7248 25.6054 29.7429 25.5244C29.7067 25.5127 26.6757 24.3643 26.6449 20.8904ZM40.0404 9.46421H37.9139V15.7452H40.0404C41.9213 15.7452 43.0261 14.583 43.0261 12.6025C43.0261 10.6264 41.9169 9.46421 40.0404 9.46421ZM38.7031 10.1694V15.04H39.9877C41.4215 15.04 42.2194 14.1695 42.2194 12.6112C42.2194 11.0399 41.4258 10.1694 39.9877 10.1694H38.7031ZM43.9612 13.4818C43.9612 14.9225 44.8118 15.8235 46.0745 15.8235C47.3328 15.8235 48.1834 14.9225 48.1834 13.4818C48.1834 12.0367 47.3328 11.14 46.0745 11.14C44.8118 11.14 43.9612 12.0367 43.9612 13.4818ZM46.0745 15.1576C46.8812 15.1576 47.4074 14.5482 47.4074 13.4818C47.4074 12.4154 46.8812 11.806 46.0745 11.806C45.2678 11.806 44.7372 12.4154 44.7372 13.4818C44.7372 14.5482 45.2678 15.1576 46.0745 15.1576ZM53.7791 15.7452L55.0506 11.2184H54.2964L53.3845 14.9008H53.367L52.3322 11.2184H51.5956L50.5653 14.9008H50.5478L49.6358 11.2184H48.8773L50.1532 15.7452H50.9292L51.9552 12.2412H51.9727L53.003 15.7452H53.7791ZM55.9725 15.7452V11.2184H56.6915V11.9409H56.7091C56.9633 11.4534 57.45 11.14 58.1559 11.14C59.1556 11.14 59.7343 11.7799 59.7343 12.8071V15.7452H58.9714V12.942C58.9714 12.2108 58.625 11.8103 57.9235 11.8103C57.2045 11.8103 56.7354 12.3152 56.7354 13.0813V15.7452H55.9725ZM61.042 9.46421V15.7452H61.8049V9.46421H61.042ZM65.0243 15.8235C63.7615 15.8235 62.911 14.9225 62.911 13.4818C62.911 12.0367 63.7615 11.14 65.0243 11.14C66.2826 11.14 67.1332 12.0367 67.1332 13.4818C67.1332 14.9225 66.2826 15.8235 65.0243 15.8235ZM66.3571 13.4818C66.3571 14.5482 65.831 15.1576 65.0243 15.1576C64.2175 15.1576 63.687 14.5482 63.687 13.4818C63.687 12.4154 64.2175 11.806 65.0243 11.806C65.831 11.806 66.3571 12.4154 66.3571 13.4818ZM69.5326 15.8235C68.625 15.8235 68.0156 15.2794 68.0156 14.4655C68.0156 13.6907 68.6163 13.2032 69.6685 13.1423L70.9751 13.0683V12.6896C70.9751 12.1368 70.6068 11.806 69.9754 11.806C69.3879 11.806 69.0196 12.0802 68.9232 12.5242H68.1866C68.2392 11.7407 68.9144 11.14 69.993 11.14C71.0628 11.14 71.738 11.7146 71.738 12.6156V15.7452H71.0145V14.966H70.997C70.7252 15.484 70.1464 15.8235 69.5326 15.8235ZM70.9751 14.0259C70.9751 14.6788 70.4226 15.1793 69.7036 15.1793C69.1555 15.1793 68.7916 14.8964 68.7916 14.4655C68.7916 14.0389 69.1424 13.7691 69.7562 13.7299L70.9751 13.6559V14.0259ZM74.7337 15.8235C73.5718 15.8235 72.7826 14.9008 72.7826 13.4818C72.7826 12.0628 73.5674 11.14 74.7162 11.14C75.3694 11.14 75.8956 11.4578 76.1674 11.954H76.1849V9.46421H76.9478V15.7452H76.22V14.9791H76.2069C75.9131 15.5014 75.3914 15.8235 74.7337 15.8235ZM73.5631 13.4818C73.5631 12.4589 74.0717 11.806 74.8784 11.806C75.6632 11.806 76.1893 12.4719 76.1893 13.4818C76.1893 14.496 75.6632 15.1576 74.8784 15.1576C74.0717 15.1576 73.5631 14.509 73.5631 13.4818ZM82.3079 15.8235C81.0452 15.8235 80.1946 14.9225 80.1946 13.4818C80.1946 12.0367 81.0452 11.14 82.3079 11.14C83.5663 11.14 84.4168 12.0367 84.4168 13.4818C84.4168 14.9225 83.5663 15.8235 82.3079 15.8235ZM83.6408 13.4818C83.6408 14.5482 83.1147 15.1576 82.3079 15.1576C81.5012 15.1576 80.9707 14.5482 80.9707 13.4818C80.9707 12.4154 81.5012 11.806 82.3079 11.806C83.1147 11.806 83.6408 12.4154 83.6408 13.4818ZM85.4834 15.7452V11.2184H86.2025V11.9409H86.22C86.4743 11.4534 86.961 11.14 87.6669 11.14C88.6665 11.14 89.2453 11.7799 89.2453 12.8071V15.7452H88.4824V12.942C88.4824 12.2108 88.136 11.8103 87.4345 11.8103C86.7154 11.8103 86.2463 12.3152 86.2463 13.0813V15.7452H85.4834ZM93.6627 10.1258H92.8998V11.2184H92.2202V11.8408H92.8998V14.57C92.8998 15.4405 93.2243 15.78 94.0617 15.78C94.2414 15.78 94.4519 15.7669 94.544 15.7452V15.1097C94.4913 15.1184 94.316 15.1315 94.2283 15.1315C93.8381 15.1315 93.6627 14.9443 93.6627 14.5308V11.8408H94.5483V11.2184H93.6627V10.1258ZM95.6982 15.7452V9.46421H96.4611V11.9409H96.4787C96.733 11.436 97.2328 11.14 97.9255 11.14C98.9252 11.14 99.5302 11.8103 99.5302 12.8202V15.7452H98.7673V12.9594C98.7673 12.2412 98.4034 11.8103 97.6888 11.8103C96.9303 11.8103 96.4611 12.3239 96.4611 13.1074V15.7452H95.6982ZM104.573 14.4481H103.824C103.697 14.8746 103.271 15.1663 102.693 15.1663C101.873 15.1663 101.36 14.5961 101.36 13.7299V13.6863H104.63V13.3991C104.63 12.028 103.872 11.14 102.64 11.14C101.382 11.14 100.575 12.0933 100.575 13.4992C100.575 14.9225 101.368 15.8235 102.675 15.8235C103.67 15.8235 104.442 15.2403 104.573 14.4481ZM102.627 11.7973C101.912 11.7973 101.412 12.3414 101.364 13.0944H103.841C103.824 12.337 103.346 11.7973 102.627 11.7973ZM44.1969 27.9019L45.3018 31.1427H47.2856L42.9247 19.1518H40.8991L36.5382 31.1427H38.4884L39.5933 27.9019H44.1969ZM41.87 21.1461L40.0704 26.4062H43.7198L41.9202 21.1461H41.87ZM57.1019 26.7718C57.1019 24.0047 55.6287 22.2596 53.3939 22.2596C52.1216 22.2596 51.1088 22.8995 50.5898 23.905H50.5564V22.4009H48.807V34.0345H50.6149V29.7051H50.6568C51.159 30.6774 52.1634 31.2923 53.4274 31.2923C55.6371 31.2923 57.1019 29.539 57.1019 26.7718ZM52.9168 29.7716C54.3481 29.7716 55.2437 28.6083 55.2437 26.7718C55.2437 24.9437 54.3481 23.772 52.9168 23.772C51.5357 23.772 50.6066 24.9686 50.6066 26.7718C50.6066 28.5916 51.5273 29.7716 52.9168 29.7716ZM67.1944 26.7718C67.1944 24.0047 65.7213 22.2596 63.4864 22.2596C62.2141 22.2596 61.2013 22.8995 60.6824 23.905H60.6489V22.4009H58.8995V34.0345H60.7075V29.7051H60.7493C61.2515 30.6774 62.256 31.2923 63.5199 31.2923C65.7296 31.2923 67.1944 29.539 67.1944 26.7718ZM63.0093 29.7716C64.4406 29.7716 65.3362 28.6083 65.3362 26.7718C65.3362 24.9437 64.4406 23.772 63.0093 23.772C61.6282 23.772 60.6991 24.9686 60.6991 26.7718C60.6991 28.5916 61.6198 29.7716 63.0093 29.7716ZM74.4056 27.8022H72.5558C72.673 29.9711 74.4809 31.3422 77.1594 31.3422C80.022 31.3422 81.8217 29.9378 81.8217 27.6942C81.8217 25.9408 80.7921 24.952 78.3145 24.3703L76.9837 24.0462C75.4268 23.664 74.7906 23.1654 74.7906 22.3178C74.7906 21.2541 75.7867 20.5229 77.2431 20.5229C78.6996 20.5229 79.6956 21.2458 79.8044 22.4424H81.6291C81.5705 20.3733 79.8212 18.9523 77.2682 18.9523C74.6902 18.9523 72.8739 20.3733 72.8739 22.4424C72.8739 24.1127 73.9034 25.1431 76.1215 25.6749L77.6868 26.0489C79.252 26.4311 79.9132 26.9879 79.9132 27.9186C79.9132 28.9905 78.8167 29.7716 77.2934 29.7716C75.703 29.7716 74.5395 28.9905 74.4056 27.8022ZM84.2219 20.3318H86.0383V22.4009H87.7123V23.8219H86.0383V28.6415C86.0383 29.3977 86.3731 29.7384 87.1097 29.7384C87.2938 29.7384 87.5868 29.7218 87.704 29.6968V31.1178C87.5031 31.1677 87.1013 31.2009 86.6995 31.2009C84.9167 31.2009 84.2219 30.5278 84.2219 28.8409V23.8219H82.9413V22.4009H84.2219V20.3318ZM88.9993 26.7718C88.9993 29.5888 90.6567 31.3089 93.1761 31.3089C95.6955 31.3089 97.3529 29.5888 97.3529 26.7718C97.3529 23.9631 95.6872 22.243 93.1761 22.243C90.665 22.243 88.9993 23.9631 88.9993 26.7718ZM93.1761 29.8298C94.5991 29.8298 95.5114 28.7163 95.5114 26.7718C95.5114 24.8356 94.5907 23.7221 93.1761 23.7221C91.7615 23.7221 90.8408 24.8356 90.8408 26.7718C90.8408 28.7163 91.7615 29.8298 93.1761 29.8298ZM100.883 22.4009H99.1589V31.1427H100.967V25.9076C100.967 24.6694 101.687 23.8966 102.85 23.8966C103.202 23.8966 103.52 23.9382 103.662 23.9964V22.3261C103.528 22.3012 103.302 22.2596 103.043 22.2596C102.005 22.2596 101.218 22.8662 100.925 23.8883H100.883V22.4009ZM111.026 28.575H112.742C112.491 30.1705 110.967 31.3089 108.95 31.3089C106.364 31.3089 104.798 29.5722 104.798 26.8134C104.798 24.0711 106.389 22.243 108.875 22.243C111.319 22.243 112.842 23.9548 112.842 26.6056V27.2205H106.623V27.3286C106.623 28.8492 107.544 29.8547 108.992 29.8547C110.021 29.8547 110.783 29.3395 111.026 28.575ZM106.632 25.9658C106.724 24.6445 107.611 23.6889 108.875 23.6889C110.139 23.6889 110.992 24.6279 111.034 25.9658H106.632Z" fill="white"></path> </svg> 