<?xml version="1.0" encoding="UTF-8"?> <svg xmlns="http://www.w3.org/2000/svg" width="32" height="32" viewBox="0 0 32 32" fill="none"> <rect width="32" height="32" rx="16" fill="white"></rect> <path fill-rule="evenodd" clip-rule="evenodd" d="M19.9413 25.9753C21.1994 26.5257 21.6712 25.3724 21.6712 25.3724L25 8.64977C24.9738 7.52269 23.4535 8.20418 23.4535 8.20418L4.81746 15.5171C4.81746 15.5171 3.92628 15.8316 4.00491 16.382C4.08355 16.9325 4.79125 17.1946 4.79125 17.1946L9.48303 18.7673C9.48303 18.7673 10.8984 23.4066 11.1868 24.2978C11.4489 25.1628 11.6848 25.189 11.6848 25.189C11.9469 25.2938 12.1828 25.1103 12.1828 25.1103L15.2233 22.3582L19.9413 25.9753ZM20.7537 11.6111C20.7537 11.6111 21.409 11.218 21.3828 11.6111C21.3828 11.6111 21.4876 11.6636 21.1469 12.0305C20.8324 12.345 13.4146 19.0027 12.4186 19.8938C12.34 19.9463 12.2875 20.0249 12.2875 20.1297L11.9992 22.5936C11.9468 22.8557 11.606 22.8819 11.5274 22.646L10.2955 18.6095C10.2431 18.4522 10.2955 18.2688 10.4528 18.1639L20.7537 11.6111Z" fill="#353747"></path> </svg> 