<?xml version="1.0" encoding="UTF-8"?> <svg xmlns="http://www.w3.org/2000/svg" width="40" height="40" viewBox="0 0 40 40" fill="none"> <circle cx="20" cy="20" r="20" fill="#6BEAC7"></circle> <path d="M9.49951 17.375H14.7495V28.75H9.49951C9.26745 28.75 9.04489 28.6578 8.88079 28.4937C8.7167 28.3296 8.62451 28.1071 8.62451 27.875V18.25C8.62451 18.0179 8.7167 17.7954 8.88079 17.6313C9.04489 17.4672 9.26745 17.375 9.49951 17.375V17.375Z" stroke="white" stroke-width="2" stroke-linecap="round" stroke-linejoin="round"></path> <path d="M14.7495 17.375L19.1245 8.625C19.5841 8.625 20.0393 8.71553 20.4639 8.89142C20.8885 9.06731 21.2744 9.32512 21.5994 9.65013C21.9244 9.97513 22.1822 10.361 22.3581 10.7856C22.534 11.2102 22.6245 11.6654 22.6245 12.125V14.75H29.3921C29.6403 14.75 29.8856 14.8028 30.1118 14.9048C30.338 15.0068 30.5399 15.1558 30.7041 15.3418C30.8683 15.5279 30.9911 15.7467 31.0643 15.9838C31.1375 16.2209 31.1594 16.4708 31.1286 16.7171L29.8161 27.2171C29.7632 27.6403 29.5576 28.0297 29.2378 28.3119C28.918 28.5942 28.5062 28.75 28.0796 28.75H14.7495" stroke="white" stroke-width="2" stroke-linecap="round" stroke-linejoin="round"></path> </svg> 