<?xml version="1.0" encoding="UTF-8"?> <svg xmlns="http://www.w3.org/2000/svg" width="40" height="40" viewBox="0 0 40 40" fill="none"> <circle cx="20" cy="20" r="20" fill="#6BEAC7"></circle> <path d="M20 29C20 29 11 23.9091 11 17.7273C11.0002 16.6347 11.375 15.5759 12.0607 14.7308C12.7464 13.8858 13.7007 13.3068 14.7613 13.0921C15.8219 12.8775 16.9233 13.0405 17.8784 13.5535C18.8334 14.0665 19.5831 14.8977 20 15.9059L20 15.9059C20.4169 14.8977 21.1666 14.0665 22.1216 13.5535C23.0767 13.0405 24.1781 12.8775 25.2387 13.0921C26.2993 13.3068 27.2536 13.8858 27.9393 14.7308C28.625 15.5759 28.9998 16.6347 29 17.7273C29 23.9091 20 29 20 29Z" stroke="white" stroke-width="2" stroke-linecap="round" stroke-linejoin="round"></path> </svg> 