<?xml version="1.0" encoding="UTF-8"?> <svg xmlns="http://www.w3.org/2000/svg" width="40" height="40" viewBox="0 0 40 40" fill="none"> <circle cx="20" cy="20" r="20" fill="#6BEAC7"></circle> <path d="M19.9846 20.0108L30.9955 9" stroke="white" stroke-width="2" stroke-linecap="round" stroke-linejoin="round"></path> <path d="M27.7705 12.2237C25.82 10.2771 23.21 9.13342 20.4567 9.019C17.7035 8.90458 15.0076 9.82772 12.9023 11.6058C10.7971 13.3839 9.43588 15.8873 9.08803 18.6209C8.74017 21.3545 9.43099 24.1191 11.0238 26.3678C12.6166 28.6164 14.9955 30.1853 17.6896 30.7641C20.3838 31.3429 23.1971 30.8894 25.5729 29.4933C27.9487 28.0972 29.714 25.8603 30.5195 23.225C31.325 20.5897 31.1121 17.7481 29.9229 15.2623" stroke="white" stroke-width="2" stroke-linecap="round" stroke-linejoin="round"></path> <path d="M23.8775 16.118C22.9673 15.2079 21.767 14.6454 20.4851 14.5284C19.2033 14.4114 17.921 14.7473 16.8611 15.4776C15.8012 16.208 15.0307 17.2866 14.6835 18.5261C14.3363 19.7656 14.4345 21.0875 14.9608 22.2621C15.4872 23.4368 16.4085 24.3899 17.5646 24.9557C18.7207 25.5216 20.0386 25.6644 21.2891 25.3595C22.5396 25.0545 23.6438 24.321 24.4096 23.2865C25.1754 22.2519 25.5546 20.9817 25.4811 19.6966" stroke="white" stroke-width="2" stroke-linecap="round" stroke-linejoin="round"></path> </svg> 