<?xml version="1.0" encoding="UTF-8"?> <svg xmlns="http://www.w3.org/2000/svg" width="32" height="32" viewBox="0 0 32 32" fill="none"> <path d="M16.2455 0.245499C7.40888 0.245499 0.245499 7.40888 0.245499 16.2455C0.245499 25.0821 7.40888 32.2455 16.2455 32.2455C25.0821 32.2455 32.2455 25.0821 32.2455 16.2455C32.2455 7.40888 25.0821 0.245499 16.2455 0.245499ZM24.4162 21.5244H22.4713C21.7296 21.5244 21.512 20.9328 20.1932 19.614C19.0391 18.5011 18.5445 18.3571 18.2565 18.3571C17.8647 18.3571 17.7477 18.4677 17.7477 19.0238V20.7678C17.7477 21.2464 17.5948 21.5244 16.3586 21.5244C14.2981 21.5244 12.0336 20.2732 10.4265 17.9657C8.01581 14.5868 7.35661 12.0315 7.35661 11.5166C7.35661 11.2283 7.46754 10.9666 8.02328 10.9666H9.96817C10.4652 10.9666 10.6519 11.1842 10.8386 11.7228C11.7897 14.4937 13.3936 16.9154 14.0528 16.9154C14.2999 16.9154 14.4137 16.8012 14.4137 16.1733V13.3093C14.3415 11.9906 13.6407 11.8825 13.6407 11.4135C13.6407 11.1959 13.8267 10.9662 14.1356 10.9662H17.192C17.6041 10.9662 17.7477 11.1867 17.7477 11.6812V15.5344C17.7477 15.9465 17.9266 16.0908 18.0503 16.0908C18.2978 16.0908 18.504 15.9465 18.957 15.4931C20.3582 13.9273 21.3474 11.5166 21.3474 11.5166C21.4711 11.2283 21.699 10.9666 22.1936 10.9666H24.1385C24.7266 10.9666 24.8503 11.2695 24.7266 11.6816C24.4795 12.8147 22.1097 16.1527 22.1097 16.1527C21.9035 16.4823 21.8213 16.6473 22.1097 17.0181C22.3155 17.3068 22.9957 17.8835 23.4491 18.4194C24.2846 19.3591 24.9139 20.152 25.0896 20.6985C25.2496 21.2467 24.9719 21.5244 24.4162 21.5244Z" fill="white"></path> </svg> 