<?xml version="1.0" encoding="UTF-8"?> <svg xmlns="http://www.w3.org/2000/svg" width="12" height="12" viewBox="0 0 12 12" fill="none"> <path d="M8.05051 6.60018V7.86644C8.05051 7.97807 8.24552 8.03972 8.37553 7.97141L11.9233 6.10533C11.9472 6.09286 11.9665 6.07693 11.9798 6.05875C11.9931 6.04056 12 6.02059 12 6.00036C12 5.98013 11.9931 5.96017 11.9798 5.94198C11.9665 5.9238 11.9472 5.90787 11.9233 5.8954L8.37553 4.02932C8.24552 3.95935 8.05051 4.02266 8.05051 4.13429V5.40056H0.200013C0.0900057 5.40056 0 5.46054 0 5.53385V6.46688C0 6.54019 0.0900057 6.60018 0.200013 6.60018H8.05051Z" fill="#515DAD"></path> </svg> 