<?xml version="1.0" encoding="UTF-8"?> <svg xmlns="http://www.w3.org/2000/svg" width="24" height="24" viewBox="0 0 24 24" fill="none"> <path d="M12.4705 2.25004C8.99668 2.24073 5.93974 4.07561 4.19259 6.8477C4.11514 6.97096 4.2017 7.13375 4.34521 7.13375H5.94657C6.05591 7.13375 6.15842 7.08491 6.22676 6.99886C6.38621 6.80119 6.55705 6.61049 6.737 6.4291C7.4796 5.67329 8.34292 5.07794 9.3042 4.66398C10.2974 4.23608 11.3543 4.01747 12.4454 4.01747C13.5365 4.01747 14.5935 4.23375 15.5866 4.66398C16.5479 5.07794 17.4112 5.67329 18.1538 6.4291C18.8964 7.18491 19.4773 8.0663 19.885 9.04537C20.3064 10.0593 20.5183 11.1361 20.5183 12.25C20.5183 13.364 20.3042 14.4407 19.885 15.4547C19.4796 16.4337 18.8964 17.3151 18.1538 18.0709C17.4112 18.8267 16.5479 19.4221 15.5866 19.8361C14.5927 20.2647 13.5244 20.4845 12.4454 20.4826C11.3543 20.4826 10.2974 20.264 9.3042 19.8361C8.34481 19.4225 7.47301 18.8231 6.737 18.0709C6.55705 17.8872 6.38849 17.6965 6.22676 17.5012C6.15842 17.4151 6.05363 17.3663 5.94657 17.3663H4.34521C4.2017 17.3663 4.11287 17.5291 4.19259 17.6523C5.93746 20.4174 8.98073 22.25 12.4454 22.25C17.8258 22.25 22.1948 17.8291 22.2495 12.3523C22.3042 6.78724 17.9283 2.26399 12.4705 2.25004ZM9.58483 14.8547V13.0872H2.43223C2.332 13.0872 2.25 13.0035 2.25 12.9012V11.5989C2.25 11.4965 2.332 11.4128 2.43223 11.4128H9.58483V9.64537C9.58483 9.48956 9.76251 9.40119 9.88096 9.49886L13.1133 12.1035C13.1351 12.1209 13.1527 12.1431 13.1648 12.1685C13.1769 12.1939 13.1832 12.2218 13.1832 12.25C13.1832 12.2783 13.1769 12.3061 13.1648 12.3315C13.1527 12.3569 13.1351 12.3791 13.1133 12.3965L9.88096 15.0012C9.76251 15.0965 9.58483 15.0105 9.58483 14.8547Z" fill="#515DAD"></path> </svg> 