<?xml version="1.0" encoding="UTF-8"?> <svg xmlns="http://www.w3.org/2000/svg" width="40" height="40" viewBox="0 0 40 40" fill="none"> <circle cx="20" cy="20" r="20" fill="#6BEAC7"></circle> <path fill-rule="evenodd" clip-rule="evenodd" d="M28 18C28 21.118 26.2162 23.8194 23.6134 25.1394C23.2501 25.3236 23 25.6851 23 26.0925V30C23 31.6569 21.6569 33 20 33C18.3431 33 17 31.6569 17 30V26.0925C17 25.6851 16.7499 25.3236 16.3866 25.1394C13.7838 23.8194 12 21.118 12 18C12 13.5817 15.5817 10 20 10C24.4183 10 28 13.5817 28 18ZM26 18C26 14.6863 23.3137 12 20 12C16.6863 12 14 14.6863 14 18C14 20.6785 15.7551 22.947 18.178 23.7184C18.6434 23.8665 19 24.2748 19 24.7632V30C19 30.5523 19.4477 31 20 31C20.5523 31 21 30.5523 21 30V24.7632C21 24.2748 21.3566 23.8665 21.822 23.7184C24.2449 22.947 26 20.6785 26 18Z" fill="white"></path> <rect x="16" y="25" width="8" height="2" rx="1" fill="white"></rect> <rect x="11.292" y="9" width="3.1" height="2" rx="1" transform="rotate(40.2467 11.292 9)" fill="white"></rect> <rect x="21.1968" y="6.06778" width="3.1" height="2" rx="1" transform="rotate(90.6994 21.1968 6.06778)" fill="white"></rect> <rect width="3.1" height="2" rx="1" transform="matrix(-0.76327 0.64608 0.64608 0.76327 29.3662 9)" fill="white"></rect> <rect width="3.1" height="2" rx="1" transform="matrix(-1 0 0 1 32.1001 17)" fill="white"></rect> <rect width="3.1" height="2" rx="1" transform="matrix(-1 0 0 1 11.1001 17)" fill="white"></rect> <path d="M18.3345 13.8345C18.1241 13.6242 17.825 13.5252 17.5435 13.6213C17.1362 13.7605 16.5248 14.0458 15.9997 14.6045C15.5249 15.1098 15.2675 15.6483 15.1334 16.0217C15.0278 16.3157 15.1304 16.6307 15.3513 16.8516C15.8718 17.3721 16.7656 17.1452 17.1339 16.5079C17.2462 16.3135 17.3693 16.1353 17.4997 16C17.6332 15.8614 17.8003 15.7366 17.9806 15.626C18.6001 15.2458 18.8484 14.3485 18.3345 13.8345Z" fill="white"></path> <rect x="16" y="28" width="8" height="2" rx="1" fill="white"></rect> </svg> 