<?xml version="1.0" encoding="UTF-8"?> <svg xmlns="http://www.w3.org/2000/svg" width="40" height="40" viewBox="0 0 40 40" fill="none"> <circle cx="20" cy="20" r="20" fill="#6BEAC7"></circle> <path d="M16.46 14.34V17.3C17.44 16.06 18.66 15.24 20.38 15.22C21.98 15.22 22.74 15.8 22.74 17.04C22.74 18.42 21.72 18.96 19.98 18.96H18.62V20.84H20.4C22.54 20.84 23.34 21.56 23.34 22.8C23.34 24.06 22.3 24.78 20.6 24.78C18.66 24.8 17.3 23.94 16.36 22.68V25.78C16.92 26.32 18.38 27.14 20.58 27.16C23.9 27.14 25.7 25.44 25.7 23.06C25.7 21.18 24.74 20.02 22.86 19.68C24.2 19.12 25.1 18.04 25.1 16.34C25.1 14.1 23.56 12.84 20.72 12.82C18.62 12.86 17.14 13.6 16.46 14.34Z" fill="white"></path> </svg> 