<?xml version="1.0" encoding="UTF-8"?> <svg xmlns="http://www.w3.org/2000/svg" width="40" height="40" viewBox="0 0 40 40" fill="none"> <circle cx="20" cy="20" r="20" fill="#6BEAC7"></circle> <path d="M16.28 22.68V25.78C16.8 26.32 18.14 27.16 20.16 27.16H20.22C23.18 27.16 25.28 25.46 25.28 22.38C25.28 19.8 23.68 18.06 20.6 18.06C20.02 18.06 19.32 18.14 18.98 18.22L19.2 15.3H24.74V13H17.22L16.64 20.7C17.3 20.44 18.26 20.16 19.74 20.16C21.64 20.16 22.8 20.86 22.8 22.42C22.8 23.72 22.06 24.72 20.18 24.78C18.4 24.82 17.14 23.94 16.28 22.68Z" fill="white"></path> </svg> 