<?xml version="1.0" encoding="UTF-8"?> <svg xmlns="http://www.w3.org/2000/svg" width="32" height="32" viewBox="0 0 32 32" fill="none"> <rect width="32" height="32" rx="16" fill="white"></rect> <path fill-rule="evenodd" clip-rule="evenodd" d="M23.7166 9.44975C24.6161 9.69192 25.3253 10.4011 25.5675 11.3006C26.0172 12.944 25.9999 16.369 25.9999 16.369C25.9999 16.369 25.9999 19.7767 25.5675 21.42C25.3253 22.3195 24.6161 23.0288 23.7166 23.2709C22.0732 23.7034 15.5 23.7034 15.5 23.7034C15.5 23.7034 8.94397 23.7034 7.28335 23.2536C6.38385 23.0115 5.67463 22.3022 5.43245 21.4027C5 19.7767 5 16.3517 5 16.3517C5 16.3517 5 12.944 5.43245 11.3006C5.67463 10.4011 6.40115 9.67463 7.28335 9.43245C8.92667 9 15.5 9 15.5 9C15.5 9 22.0732 9 23.7166 9.44975ZM18.873 16.3514L13.4068 19.4997V13.2032L18.873 16.3514Z" fill="#353747"></path> </svg> 